<svg width="54" height="54" viewBox="0 0 54 54" fill="none" xmlns="http://www.w3.org/2000/svg">
<path d="M0 0H54V44.6087C54 49.7954 49.7954 54 44.6087 54H9.3913C4.20463 54 0 49.7954 0 44.6087V0Z" fill="#2581D9"/>
<g opacity="0.5">
<path d="M14.8594 35.8861C13.1963 34.0353 12.1985 32.0161 12.1985 28.6509C12.1985 22.7618 16.3561 17.5457 22.1767 14.8535L23.6735 17.0409C18.1854 20.0696 17.0213 23.9396 16.6887 26.4635C17.5202 25.9587 18.6844 25.7905 19.8485 25.9587C22.842 26.2953 25.1702 28.6509 25.1702 31.8479C25.1702 33.3622 24.505 34.8766 23.5072 36.0544C22.3431 37.2322 21.0126 37.737 19.3496 37.737C17.5202 37.737 15.8572 36.8957 14.8594 35.8861ZM31.4898 35.8861C29.8267 34.0353 28.8289 32.0161 28.8289 28.6509C28.8289 22.7618 32.9865 17.5457 38.8072 14.8535L40.3039 17.0409C34.8159 20.0696 33.6518 23.9396 33.3191 26.4635C34.1507 25.9587 35.3148 25.7905 36.4789 25.9587C39.4724 26.2953 41.8007 28.6509 41.8007 31.8479C41.8007 33.3622 41.1354 34.8766 40.1376 36.0544C39.1398 37.2322 37.6431 37.737 35.98 37.737C34.1507 37.737 32.4876 36.8957 31.4898 35.8861Z" fill="white"/>
</g>
</svg>
