<svg width="24" height="23" viewBox="0 0 24 23" fill="none" xmlns="http://www.w3.org/2000/svg">
<path d="M22.2627 9.88272L17.7856 14.247L18.8429 20.411C18.8889 20.6805 18.7782 20.9529 18.5569 21.1139C18.4318 21.2052 18.283 21.2512 18.1342 21.2512C18.02 21.2512 17.905 21.2239 17.8 21.1685L12.2642 18.2583L6.72912 21.1678C6.48762 21.2957 6.19365 21.2749 5.97227 21.1132C5.7509 20.9522 5.64021 20.6798 5.68621 20.4102L6.74349 14.2462L2.26568 9.88272C2.07018 9.69153 1.99902 9.40547 2.08384 9.146C2.16865 8.88653 2.39362 8.69606 2.66459 8.65653L8.85231 7.75809L11.6195 2.15041C11.8617 1.6595 12.6667 1.6595 12.9089 2.15041L15.6761 7.75809L21.8638 8.65653C22.1348 8.69606 22.3598 8.88581 22.4446 9.146C22.5294 9.40619 22.4582 9.69081 22.2627 9.88272Z" fill="#00AFFF"/>
</svg>
