<svg width="231" height="57" viewBox="0 0 231 57" fill="none" xmlns="http://www.w3.org/2000/svg">
<path d="M46.2746 2.87214C46.1954 2.89193 46.1163 2.91173 46.0371 2.93151C40.2488 4.68283 34.6981 4.86094 29.2066 2.01134C23.7449 -0.778898 15.582 -1.31321 11.9903 4.65315C10.6842 6.82003 10.1499 9.37281 9.85307 11.8959C8.78447 20.7119 9.91244 30.6854 11.9012 39.3233C13.2667 45.1116 15.9382 52.7699 21.3405 56.0054C22.6763 56.8068 24.3979 57.2817 25.793 56.599C26.7726 56.0944 27.3959 55.1149 27.8412 54.1056C29.4144 50.4546 30.9283 37.1267 37.5773 40.0654C39.1506 40.7481 40.2192 42.262 40.7831 43.8649C41.9408 47.3081 41.4362 51.0779 43.0688 54.4025C43.5734 55.4117 44.2561 56.4506 45.3247 56.8365C46.1261 57.1333 47.0167 56.9849 47.8181 56.7178C51.3801 55.4414 54.1703 51.4638 55.8029 48.2283C61.3834 37.1267 63.4019 24.2442 61.5615 11.9553C60.9678 8.00738 59.4837 4.08916 55.5655 2.42689C52.6565 1.18019 49.3023 1.95196 46.2746 2.87214Z" fill="#F9FFF9"/>
<path d="M23.7746 48.704C23.5965 49.4164 22.6763 49.6539 22.231 49.0602C20.3313 46.7152 18.6987 42.886 17.5708 38.018C15.4336 28.8458 14.7508 19.8221 15.6117 12.609C15.8194 11.0358 16.146 9.04701 16.9771 7.6519C17.2442 7.20665 18.0754 5.81152 21.1031 5.81152C22.8544 5.81152 24.8432 6.31613 26.5054 7.17695C30.1565 9.07669 34.1044 10.0266 38.2007 10.0266C41.2284 10.0266 44.3451 9.55162 47.729 8.5127L47.9368 8.45333C49.3023 8.03776 50.8755 7.59253 52.1519 7.59253C52.6268 7.59253 53.0127 7.6519 53.3095 7.80031C53.7548 7.97841 55.1796 8.57207 55.8029 12.8168C57.5839 24.6308 55.4764 37.1868 49.5397 47.576C49.3023 47.9916 49.0648 48.4071 48.6492 48.6446C46.8386 49.7726 46.9573 46.8339 46.8979 45.9434C46.8583 45.2706 46.7693 44.5978 46.6308 43.9249C46.3933 42.6189 46.0074 41.3425 45.4137 40.1255C44.2561 37.7508 42.3564 35.7917 39.9223 34.7231C38.5569 34.1294 37.1618 33.8326 35.7667 33.8326C27.4256 33.8326 25.3181 42.9751 23.7746 48.704Z" fill="#F0F5F0"/>
<path d="M73.2864 17.1498C72.574 15.8141 71.0601 14.7455 69.2495 14.3002C66.8748 13.7362 64.4111 14.0034 61.888 14.3893C61.9473 15.0225 61.9968 15.6657 62.0364 16.3187C64.4408 15.9625 66.7264 15.6954 68.7745 16.2C70.0509 16.4968 71.1195 17.2092 71.5648 18.07C71.8319 18.545 71.8616 19.0199 71.6835 19.5245C71.4163 20.326 70.6743 21.1274 69.4869 21.8992C67.2013 23.4427 64.6485 24.6004 62.0364 25.6096C60.6413 26.1736 59.2165 26.6782 57.7917 27.1531C51.3504 29.3497 44.1076 30.9526 35.7073 32.0509C28.138 33.0601 19.5595 34.1584 11.1294 33.5647C11.0107 33.545 10.8821 33.535 10.7436 33.535C9.14065 33.3866 7.35965 33.1789 5.78643 32.5852C4.09448 31.9618 2.8181 30.9823 2.2838 29.8543C1.9276 29.1122 1.89792 28.4295 2.19475 27.7468C2.69937 26.5595 4.42101 24.8081 9.52654 22.9084C9.50676 22.2356 9.48696 21.5628 9.46717 20.8899C4.36164 22.6709 1.3933 24.6597 0.413748 26.975C-0.090869 28.192 -0.0611965 29.4387 0.532471 30.7151C1.30424 32.2883 2.90715 33.5944 5.10372 34.4255C7.06282 35.1379 9.17034 35.3754 11.0107 35.4942C11.0305 35.4942 11.0602 35.4942 11.0998 35.4942C12.7818 35.6129 14.454 35.6723 16.1162 35.6723C23.0028 35.6723 29.83 34.7817 35.9744 33.9803C44.4935 32.882 51.855 31.2494 58.4447 28.9935C59.543 28.6076 60.7006 28.192 61.8286 27.7765C64.8563 26.6485 67.884 25.3128 70.5555 23.5318C72.1287 22.4928 73.0786 21.3945 73.5239 20.1775C73.8801 19.1683 73.791 18.0997 73.2864 17.1498Z" fill="#4378FB"/>
<path d="M73.227 11.6589C72.5146 10.3231 71.0008 9.25453 69.1901 8.80928C66.6967 8.21561 63.6096 8.57182 60.9084 8.98739L61.3834 10.8871C63.8768 10.5012 66.578 10.1747 68.7448 10.709C69.9915 11.0059 71.0601 11.7182 71.5351 12.5791C71.7725 13.054 71.8319 13.5289 71.6538 14.0336C71.357 14.835 70.6149 15.6365 69.4276 16.4379C67.2013 17.9221 64.7079 19.0797 62.1551 20.0593C60.7006 20.6529 59.2165 21.1576 57.762 21.6622C51.291 23.8587 44.0483 25.4616 35.6776 26.5599C28.0786 27.5692 19.5001 28.6675 11.0997 28.0738C10.704 28.0342 10.2983 27.9946 9.88272 27.955C8.51729 27.8363 7.0628 27.5989 5.72705 27.0942C4.0351 26.4709 2.75872 25.4913 2.22442 24.3634C1.8979 23.6213 1.86822 22.9386 2.13537 22.2558C2.63999 21.0685 4.36162 19.3172 9.40779 17.4471C9.42758 16.7545 9.45726 16.0619 9.49684 15.3693C4.33193 17.1503 1.3636 19.1688 0.354368 21.4841C-0.150249 22.7011 -0.120558 23.9478 0.473109 25.2242C1.24488 26.7974 2.87745 28.1035 5.04434 28.9346C6.73629 29.5283 8.51729 29.7954 10.1499 29.9438C10.4269 29.9636 10.6941 29.9834 10.9513 30.0032C12.6532 30.1219 14.355 30.1813 16.0569 30.1813C22.9731 30.1813 29.7706 29.2908 35.915 28.4893C44.4342 27.3911 51.7956 25.7585 58.3853 23.5025C59.632 23.0573 60.8787 22.612 62.1551 22.1371C65.0641 21.0388 67.9434 19.7624 70.4962 18.0408C72.0694 17.0019 73.0489 15.9036 73.4645 14.6866C73.8207 13.6773 73.7613 12.6088 73.227 11.6589Z" fill="#00ADEF"/>
<path d="M69.2198 11.3913L72.8114 12.074L69.0417 12.727L68.4777 16.4078L67.7356 12.7864L64.1439 12.074L67.6762 11.2132L68.4777 7.74023L69.2198 11.3913Z" fill="#F9FFF9"/>
<path d="M72.7818 17.8623L75.3048 18.367L72.663 18.8122L72.2771 21.3947L71.7428 18.8419L69.2198 18.3373L71.7132 17.7436L72.2771 15.3096L72.7818 17.8623Z" fill="#F9FFF9"/>
<path d="M90.88 25C90.6267 25 90.4133 24.9333 90.24 24.8C90.08 24.6533 90 24.46 90 24.22V10.16C90 9.93333 90.0733 9.74667 90.22 9.6C90.3667 9.45333 90.5533 9.38 90.78 9.38H95.64C96.44 9.38 97.16 9.55333 97.8 9.9C98.4533 10.2333 98.9667 10.6933 99.34 11.28C99.7267 11.8667 99.92 12.5467 99.92 13.32C99.92 14.04 99.7267 14.68 99.34 15.24C98.9533 15.8 98.4467 16.2267 97.82 16.52C98.7133 16.76 99.4333 17.2133 99.98 17.88C100.527 18.5333 100.8 19.3667 100.8 20.38C100.8 21.2867 100.593 22.0867 100.18 22.78C99.7667 23.4733 99.1933 24.02 98.46 24.42C97.74 24.8067 96.9133 25 95.98 25H90.88ZM91.56 23.5H95.98C96.62 23.5 97.1867 23.3733 97.68 23.12C98.1733 22.8667 98.56 22.5067 98.84 22.04C99.12 21.5733 99.26 21.02 99.26 20.38C99.26 19.78 99.12 19.26 98.84 18.82C98.56 18.3667 98.1733 18.02 97.68 17.78C97.1867 17.5267 96.62 17.4 95.98 17.4H91.56V23.5ZM91.56 15.9H95.64C96.44 15.9 97.1 15.6733 97.62 15.22C98.14 14.7667 98.4 14.1333 98.4 13.32C98.4 12.52 98.14 11.9133 97.62 11.5C97.1 11.0867 96.44 10.88 95.64 10.88H91.56V15.9ZM105.346 18.26C105.386 17.4333 105.6 16.6933 105.986 16.04C106.386 15.3867 106.9 14.8733 107.526 14.5C108.166 14.1267 108.873 13.94 109.646 13.94C110.26 13.94 110.733 14.0267 111.066 14.2C111.4 14.3733 111.526 14.6267 111.446 14.96C111.393 15.16 111.3 15.2933 111.166 15.36C111.046 15.4267 110.893 15.4533 110.706 15.44C110.533 15.4267 110.333 15.4133 110.106 15.4C109.36 15.3333 108.693 15.4133 108.106 15.64C107.533 15.8533 107.073 16.1867 106.726 16.64C106.393 17.0933 106.226 17.6333 106.226 18.26H105.346ZM105.466 25C105.226 25 105.04 24.9333 104.906 24.8C104.773 24.6667 104.706 24.48 104.706 24.24V14.82C104.706 14.58 104.773 14.3933 104.906 14.26C105.04 14.1267 105.226 14.06 105.466 14.06C105.706 14.06 105.893 14.1267 106.026 14.26C106.16 14.3933 106.226 14.58 106.226 14.82V24.24C106.226 24.48 106.16 24.6667 106.026 24.8C105.893 24.9333 105.706 25 105.466 25ZM115.966 25C115.726 25 115.533 24.9333 115.386 24.8C115.253 24.6533 115.186 24.46 115.186 24.22V14.84C115.186 14.6 115.253 14.4133 115.386 14.28C115.533 14.1333 115.726 14.06 115.966 14.06C116.193 14.06 116.373 14.1333 116.506 14.28C116.653 14.4133 116.726 14.6 116.726 14.84V24.22C116.726 24.46 116.653 24.6533 116.506 24.8C116.373 24.9333 116.193 25 115.966 25ZM115.946 11.98C115.653 11.98 115.4 11.8733 115.186 11.66C114.973 11.4467 114.866 11.1867 114.866 10.88C114.866 10.5467 114.973 10.2867 115.186 10.1C115.413 9.9 115.673 9.8 115.966 9.8C116.246 9.8 116.493 9.9 116.706 10.1C116.933 10.2867 117.046 10.5467 117.046 10.88C117.046 11.1867 116.94 11.4467 116.726 11.66C116.513 11.8733 116.253 11.98 115.946 11.98ZM126.468 25.1C125.414 25.1 124.481 24.8667 123.668 24.4C122.854 23.92 122.214 23.26 121.748 22.42C121.294 21.58 121.068 20.62 121.068 19.54C121.068 18.4467 121.308 17.48 121.788 16.64C122.268 15.8 122.928 15.1467 123.768 14.68C124.608 14.2 125.561 13.96 126.628 13.96C127.708 13.96 128.661 14.2 129.488 14.68C130.328 15.1467 130.981 15.8 131.448 16.64C131.928 17.48 132.174 18.4467 132.188 19.54L131.288 20.02C131.288 21.0067 131.081 21.8867 130.668 22.66C130.254 23.42 129.681 24.02 128.948 24.46C128.228 24.8867 127.401 25.1 126.468 25.1ZM126.668 29.32C125.614 29.32 124.688 29.12 123.888 28.72C123.088 28.3333 122.428 27.8 121.908 27.12C121.761 26.96 121.694 26.7867 121.708 26.6C121.734 26.4133 121.834 26.26 122.008 26.14C122.181 26.02 122.374 25.98 122.588 26.02C122.801 26.06 122.968 26.16 123.088 26.32C123.474 26.8 123.968 27.1867 124.568 27.48C125.181 27.7733 125.888 27.92 126.688 27.92C127.434 27.92 128.108 27.74 128.708 27.38C129.308 27.02 129.781 26.5133 130.128 25.86C130.488 25.2067 130.668 24.44 130.668 23.56V20.52L131.248 19.36L132.188 19.54V23.62C132.188 24.7 131.948 25.6667 131.468 26.52C130.988 27.3867 130.334 28.0667 129.508 28.56C128.681 29.0667 127.734 29.32 126.668 29.32ZM126.628 23.7C127.414 23.7 128.108 23.5267 128.708 23.18C129.321 22.82 129.801 22.3267 130.148 21.7C130.494 21.0733 130.668 20.3533 130.668 19.54C130.668 18.7267 130.494 18.0067 130.148 17.38C129.801 16.74 129.321 16.2467 128.708 15.9C128.108 15.54 127.414 15.36 126.628 15.36C125.841 15.36 125.141 15.54 124.528 15.9C123.914 16.2467 123.434 16.74 123.088 17.38C122.741 18.0067 122.568 18.7267 122.568 19.54C122.568 20.3533 122.741 21.0733 123.088 21.7C123.434 22.3267 123.914 22.82 124.528 23.18C125.141 23.5267 125.841 23.7 126.628 23.7ZM136.963 20.54C136.723 20.54 136.529 20.4667 136.383 20.32C136.249 20.1733 136.183 19.9867 136.183 19.76V10.16C136.183 9.92 136.249 9.73333 136.383 9.6C136.529 9.45333 136.723 9.38 136.963 9.38C137.189 9.38 137.369 9.45333 137.503 9.6C137.649 9.73333 137.723 9.92 137.723 10.16V19.76C137.723 19.9867 137.649 20.1733 137.503 20.32C137.369 20.4667 137.189 20.54 136.963 20.54ZM145.563 25C145.336 25 145.149 24.9267 145.003 24.78C144.856 24.6333 144.783 24.4533 144.783 24.24V19.04C144.783 18.2133 144.623 17.5333 144.303 17C143.996 16.4667 143.569 16.0667 143.023 15.8C142.489 15.5333 141.883 15.4 141.203 15.4C140.549 15.4 139.956 15.5267 139.423 15.78C138.903 16.0333 138.489 16.38 138.183 16.82C137.876 17.26 137.723 17.76 137.723 18.32H136.623C136.649 17.48 136.876 16.7333 137.303 16.08C137.729 15.4133 138.296 14.8933 139.003 14.52C139.709 14.1333 140.496 13.94 141.363 13.94C142.309 13.94 143.156 14.14 143.903 14.54C144.649 14.9267 145.236 15.5 145.663 16.26C146.103 17.02 146.323 17.9467 146.323 19.04V24.24C146.323 24.4533 146.249 24.6333 146.103 24.78C145.956 24.9267 145.776 25 145.563 25ZM136.963 25C136.723 25 136.529 24.9333 136.383 24.8C136.249 24.6533 136.183 24.4667 136.183 24.24V14.84C136.183 14.6 136.249 14.4133 136.383 14.28C136.529 14.1333 136.723 14.06 136.963 14.06C137.189 14.06 137.369 14.1333 137.503 14.28C137.649 14.4133 137.723 14.6 137.723 14.84V24.24C137.723 24.4667 137.649 24.6533 137.503 24.8C137.369 24.9333 137.189 25 136.963 25ZM154.998 25C154.291 25 153.658 24.8333 153.098 24.5C152.551 24.1667 152.118 23.7133 151.798 23.14C151.478 22.5533 151.318 21.8867 151.318 21.14V11.36C151.318 11.1333 151.385 10.9467 151.518 10.8C151.665 10.6533 151.851 10.58 152.078 10.58C152.305 10.58 152.491 10.6533 152.638 10.8C152.785 10.9467 152.858 11.1333 152.858 11.36V21.14C152.858 21.82 153.058 22.38 153.458 22.82C153.858 23.2467 154.371 23.46 154.998 23.46H155.538C155.751 23.46 155.925 23.5333 156.058 23.68C156.191 23.8267 156.258 24.0133 156.258 24.24C156.258 24.4667 156.178 24.6533 156.018 24.8C155.858 24.9333 155.658 25 155.418 25H154.998ZM150.018 15.8C149.818 15.8 149.651 15.74 149.518 15.62C149.385 15.4867 149.318 15.3267 149.318 15.14C149.318 14.94 149.385 14.78 149.518 14.66C149.651 14.5267 149.818 14.46 150.018 14.46H155.118C155.318 14.46 155.485 14.5267 155.618 14.66C155.751 14.78 155.818 14.94 155.818 15.14C155.818 15.3267 155.751 15.4867 155.618 15.62C155.485 15.74 155.318 15.8 155.118 15.8H150.018ZM178.484 25.2C177.63 25.2 176.837 25.08 176.104 24.84C175.384 24.5867 174.757 24.2333 174.224 23.78C173.69 23.3267 173.284 22.8 173.004 22.2C172.897 21.9867 172.89 21.7933 172.984 21.62C173.09 21.4333 173.264 21.3067 173.504 21.24C173.69 21.1867 173.87 21.2067 174.044 21.3C174.23 21.3933 174.37 21.5333 174.464 21.72C174.664 22.1067 174.957 22.4533 175.344 22.76C175.73 23.0667 176.19 23.3067 176.724 23.48C177.257 23.64 177.844 23.72 178.484 23.72C179.19 23.72 179.817 23.6067 180.364 23.38C180.91 23.14 181.337 22.8 181.644 22.36C181.964 21.9067 182.124 21.36 182.124 20.72C182.124 19.9067 181.824 19.2067 181.224 18.62C180.624 18.0333 179.684 17.66 178.404 17.5C176.844 17.3133 175.624 16.8333 174.744 16.06C173.864 15.2733 173.424 14.3133 173.424 13.18C173.424 12.3667 173.637 11.66 174.064 11.06C174.504 10.46 175.104 10 175.864 9.68C176.624 9.34667 177.497 9.18 178.484 9.18C179.217 9.18 179.884 9.3 180.484 9.54C181.084 9.76667 181.604 10.0733 182.044 10.46C182.497 10.8333 182.864 11.2467 183.144 11.7C183.277 11.9133 183.317 12.12 183.264 12.32C183.224 12.52 183.11 12.6733 182.924 12.78C182.724 12.8733 182.517 12.8867 182.304 12.82C182.104 12.7533 181.95 12.6267 181.844 12.44C181.644 12.1333 181.39 11.8467 181.084 11.58C180.79 11.3 180.43 11.08 180.004 10.92C179.577 10.76 179.064 10.6733 178.464 10.66C177.41 10.66 176.564 10.8867 175.924 11.34C175.284 11.78 174.964 12.4267 174.964 13.28C174.964 13.7333 175.084 14.1533 175.324 14.54C175.564 14.9133 175.957 15.24 176.504 15.52C177.064 15.7867 177.81 15.9867 178.744 16.12C180.41 16.36 181.644 16.8733 182.444 17.66C183.257 18.4333 183.664 19.4467 183.664 20.7C183.664 21.42 183.53 22.06 183.264 22.62C183.01 23.18 182.644 23.6533 182.164 24.04C181.697 24.4133 181.144 24.7 180.504 24.9C179.877 25.1 179.204 25.2 178.484 25.2ZM202.506 25C202.279 25 202.092 24.9333 201.946 24.8C201.799 24.6533 201.726 24.4667 201.726 24.24V18.48C201.726 17.5333 201.479 16.7867 200.986 16.24C200.492 15.68 199.859 15.4 199.086 15.4C198.259 15.4 197.579 15.68 197.046 16.24C196.526 16.7867 196.272 17.52 196.286 18.44H194.906C194.919 17.5467 195.112 16.76 195.486 16.08C195.859 15.4 196.372 14.8733 197.026 14.5C197.679 14.1267 198.419 13.94 199.246 13.94C200.032 13.94 200.726 14.1267 201.326 14.5C201.939 14.8733 202.412 15.4 202.746 16.08C203.092 16.76 203.266 17.56 203.266 18.48V24.24C203.266 24.4667 203.192 24.6533 203.046 24.8C202.912 24.9333 202.732 25 202.506 25ZM188.506 25C188.266 25 188.072 24.9333 187.926 24.8C187.792 24.6533 187.726 24.4667 187.726 24.24V14.84C187.726 14.6133 187.792 14.4267 187.926 14.28C188.072 14.1333 188.266 14.06 188.506 14.06C188.732 14.06 188.912 14.1333 189.046 14.28C189.192 14.4267 189.266 14.6133 189.266 14.84V24.24C189.266 24.4667 189.192 24.6533 189.046 24.8C188.912 24.9333 188.732 25 188.506 25ZM195.526 25C195.299 25 195.112 24.9333 194.966 24.8C194.819 24.6533 194.746 24.4667 194.746 24.24V18.48C194.746 17.5333 194.499 16.7867 194.006 16.24C193.512 15.68 192.879 15.4 192.106 15.4C191.279 15.4 190.599 15.6733 190.066 16.22C189.532 16.7533 189.266 17.4533 189.266 18.32H188.166C188.192 17.4667 188.379 16.7133 188.726 16.06C189.086 15.3933 189.572 14.8733 190.186 14.5C190.799 14.1267 191.492 13.94 192.266 13.94C193.052 13.94 193.746 14.1267 194.346 14.5C194.959 14.8733 195.432 15.4 195.766 16.08C196.112 16.76 196.286 17.56 196.286 18.48V24.24C196.286 24.4667 196.212 24.6533 196.066 24.8C195.932 24.9333 195.752 25 195.526 25ZM208.771 25C208.531 25 208.338 24.9333 208.191 24.8C208.058 24.6533 207.991 24.46 207.991 24.22V14.84C207.991 14.6 208.058 14.4133 208.191 14.28C208.338 14.1333 208.531 14.06 208.771 14.06C208.998 14.06 209.178 14.1333 209.311 14.28C209.458 14.4133 209.531 14.6 209.531 14.84V24.22C209.531 24.46 209.458 24.6533 209.311 24.8C209.178 24.9333 208.998 25 208.771 25ZM208.751 11.98C208.458 11.98 208.204 11.8733 207.991 11.66C207.778 11.4467 207.671 11.1867 207.671 10.88C207.671 10.5467 207.778 10.2867 207.991 10.1C208.218 9.9 208.478 9.8 208.771 9.8C209.051 9.8 209.298 9.9 209.511 10.1C209.738 10.2867 209.851 10.5467 209.851 10.88C209.851 11.1867 209.744 11.4467 209.531 11.66C209.318 11.8733 209.058 11.98 208.751 11.98ZM216.812 25C216.279 25 215.799 24.8533 215.372 24.56C214.959 24.2667 214.632 23.86 214.392 23.34C214.166 22.82 214.052 22.22 214.052 21.54V10.14C214.052 9.91333 214.119 9.73333 214.252 9.6C214.399 9.45333 214.586 9.38 214.812 9.38C215.039 9.38 215.219 9.45333 215.352 9.6C215.499 9.73333 215.572 9.91333 215.572 10.14V21.54C215.572 22.1133 215.686 22.58 215.912 22.94C216.152 23.3 216.452 23.48 216.812 23.48H217.312C217.512 23.48 217.672 23.5533 217.792 23.7C217.912 23.8333 217.972 24.0133 217.972 24.24C217.972 24.4667 217.886 24.6533 217.712 24.8C217.552 24.9333 217.339 25 217.072 25H216.812ZM225.451 25.1C224.371 25.1 223.411 24.8667 222.571 24.4C221.745 23.92 221.091 23.26 220.611 22.42C220.145 21.58 219.911 20.62 219.911 19.54C219.911 18.4467 220.131 17.4867 220.571 16.66C221.025 15.82 221.645 15.16 222.431 14.68C223.218 14.2 224.125 13.96 225.151 13.96C226.165 13.96 227.045 14.1933 227.791 14.66C228.551 15.1133 229.138 15.7467 229.551 16.56C229.965 17.3733 230.171 18.3 230.171 19.34C230.171 19.5533 230.105 19.7267 229.971 19.86C229.838 19.98 229.665 20.04 229.451 20.04H220.951V18.76H229.611L228.751 19.38C228.765 18.6067 228.625 17.9133 228.331 17.3C228.038 16.6867 227.618 16.2067 227.071 15.86C226.538 15.5133 225.898 15.34 225.151 15.34C224.391 15.34 223.725 15.52 223.151 15.88C222.578 16.24 222.131 16.74 221.811 17.38C221.505 18.0067 221.351 18.7267 221.351 19.54C221.351 20.3533 221.525 21.0733 221.871 21.7C222.231 22.3267 222.718 22.82 223.331 23.18C223.945 23.54 224.651 23.72 225.451 23.72C225.931 23.72 226.411 23.64 226.891 23.48C227.385 23.3067 227.778 23.0933 228.071 22.84C228.218 22.72 228.385 22.66 228.571 22.66C228.758 22.6467 228.918 22.6933 229.051 22.8C229.225 22.96 229.311 23.1333 229.311 23.32C229.325 23.5067 229.251 23.6667 229.091 23.8C228.651 24.1733 228.091 24.4867 227.411 24.74C226.731 24.98 226.078 25.1 225.451 25.1Z" fill="white"/>
<path d="M175.655 48.297C175.765 48.297 175.863 48.3395 175.948 48.4245L176.743 49.287C176.303 49.832 175.76 50.2495 175.115 50.5395C174.475 50.8295 173.705 50.9745 172.805 50.9745C172 50.9745 171.275 50.837 170.63 50.562C169.99 50.287 169.443 49.9045 168.988 49.4145C168.533 48.9245 168.183 48.3395 167.938 47.6595C167.698 46.9795 167.578 46.237 167.578 45.432C167.578 44.617 167.708 43.872 167.968 43.197C168.228 42.517 168.593 41.932 169.063 41.442C169.538 40.952 170.103 40.572 170.758 40.302C171.413 40.027 172.138 39.8895 172.933 39.8895C173.723 39.8895 174.423 40.0195 175.033 40.2795C175.648 40.5395 176.17 40.8795 176.6 41.2995L175.925 42.237C175.885 42.297 175.833 42.3495 175.768 42.3945C175.708 42.4395 175.623 42.462 175.513 42.462C175.438 42.462 175.36 42.442 175.28 42.402C175.2 42.357 175.113 42.3045 175.018 42.2445C174.923 42.1795 174.813 42.1095 174.688 42.0345C174.563 41.9595 174.418 41.892 174.253 41.832C174.088 41.767 173.895 41.7145 173.675 41.6745C173.46 41.6295 173.21 41.607 172.925 41.607C172.44 41.607 171.995 41.6945 171.59 41.8695C171.19 42.0395 170.845 42.2895 170.555 42.6195C170.265 42.9445 170.04 43.3445 169.88 43.8195C169.72 44.2895 169.64 44.827 169.64 45.432C169.64 46.042 169.725 46.5845 169.895 47.0595C170.07 47.5345 170.305 47.9345 170.6 48.2595C170.895 48.5845 171.243 48.8345 171.643 49.0095C172.043 49.1795 172.473 49.2645 172.933 49.2645C173.208 49.2645 173.455 49.2495 173.675 49.2195C173.9 49.1895 174.105 49.142 174.29 49.077C174.48 49.012 174.658 48.9295 174.823 48.8295C174.993 48.7245 175.16 48.597 175.325 48.447C175.375 48.402 175.428 48.367 175.483 48.342C175.538 48.312 175.595 48.297 175.655 48.297ZM187.327 49.1895V50.8545H180.974V40.0095H182.992V49.1895H187.327ZM193.642 50.8545H191.617V40.0095H193.642V50.8545ZM208.063 40.0095V50.8545H207.028C206.868 50.8545 206.733 50.8295 206.623 50.7795C206.518 50.7245 206.416 50.6345 206.316 50.5095L200.653 43.2795C200.683 43.6095 200.698 43.9145 200.698 44.1945V50.8545H198.921V40.0095H199.978C200.063 40.0095 200.136 40.0145 200.196 40.0245C200.261 40.0295 200.316 40.0445 200.361 40.0695C200.411 40.0895 200.458 40.122 200.503 40.167C200.548 40.207 200.598 40.262 200.653 40.332L206.338 47.592C206.323 47.417 206.311 47.2445 206.301 47.0745C206.291 46.9045 206.286 46.747 206.286 46.602V40.0095H208.063ZM215.353 50.8545H213.328V40.0095H215.353V50.8545ZM228.079 48.297C228.189 48.297 228.286 48.3395 228.371 48.4245L229.166 49.287C228.726 49.832 228.184 50.2495 227.539 50.5395C226.899 50.8295 226.129 50.9745 225.229 50.9745C224.424 50.9745 223.699 50.837 223.054 50.562C222.414 50.287 221.866 49.9045 221.411 49.4145C220.956 48.9245 220.606 48.3395 220.361 47.6595C220.121 46.9795 220.001 46.237 220.001 45.432C220.001 44.617 220.131 43.872 220.391 43.197C220.651 42.517 221.016 41.932 221.486 41.442C221.961 40.952 222.526 40.572 223.181 40.302C223.836 40.027 224.561 39.8895 225.356 39.8895C226.146 39.8895 226.846 40.0195 227.456 40.2795C228.071 40.5395 228.594 40.8795 229.024 41.2995L228.349 42.237C228.309 42.297 228.256 42.3495 228.191 42.3945C228.131 42.4395 228.046 42.462 227.936 42.462C227.861 42.462 227.784 42.442 227.704 42.402C227.624 42.357 227.536 42.3045 227.441 42.2445C227.346 42.1795 227.236 42.1095 227.111 42.0345C226.986 41.9595 226.841 41.892 226.676 41.832C226.511 41.767 226.319 41.7145 226.099 41.6745C225.884 41.6295 225.634 41.607 225.349 41.607C224.864 41.607 224.419 41.6945 224.014 41.8695C223.614 42.0395 223.269 42.2895 222.979 42.6195C222.689 42.9445 222.464 43.3445 222.304 43.8195C222.144 44.2895 222.064 44.827 222.064 45.432C222.064 46.042 222.149 46.5845 222.319 47.0595C222.494 47.5345 222.729 47.9345 223.024 48.2595C223.319 48.5845 223.666 48.8345 224.066 49.0095C224.466 49.1795 224.896 49.2645 225.356 49.2645C225.631 49.2645 225.879 49.2495 226.099 49.2195C226.324 49.1895 226.529 49.142 226.714 49.077C226.904 49.012 227.081 48.9295 227.246 48.8295C227.416 48.7245 227.584 48.597 227.749 48.447C227.799 48.402 227.851 48.367 227.906 48.342C227.961 48.312 228.019 48.297 228.079 48.297Z" fill="white"/>
<rect x="90.3913" y="47.8105" width="66.9549" height="1.19562" fill="white"/>
</svg>
