<svg width="20" height="19" viewBox="0 0 20 19" fill="none" xmlns="http://www.w3.org/2000/svg">
<g clip-path="url(#clip0_51_16681)">
<path d="M1.91961 6.63737C2.1726 6.80698 2.93523 7.3107 4.20753 8.14827C5.47986 8.98585 6.45456 9.63076 7.13165 10.083C7.20604 10.1326 7.36409 10.2404 7.60587 10.4065C7.84769 10.5727 8.04861 10.7071 8.2085 10.8095C8.36849 10.9119 8.56192 11.0268 8.78896 11.154C9.01592 11.2811 9.22987 11.3767 9.43076 11.44C9.63168 11.5038 9.81768 11.5354 9.98878 11.5354H10H10.0113C10.1824 11.5354 10.3684 11.5037 10.5694 11.44C10.7702 11.3767 10.9843 11.281 11.2111 11.154C11.438 11.0267 11.6314 10.9119 11.7914 10.8095C11.9514 10.7071 12.1522 10.5727 12.3941 10.4065C12.6358 10.2402 12.794 10.1326 12.8684 10.083C13.5528 9.63076 15.2941 8.48209 18.0916 6.63715C18.6347 6.27682 19.0885 5.84202 19.453 5.33307C19.8178 4.82433 20 4.29064 20 3.7323C20 3.26571 19.8232 2.86631 19.4697 2.53413C19.1163 2.20186 18.6977 2.03583 18.2142 2.03583H1.78564C1.21276 2.03583 0.771892 2.21958 0.463112 2.58708C0.154371 2.95466 0 3.41411 0 3.9654C0 4.41071 0.204681 4.89326 0.613847 5.41276C1.02297 5.9323 1.45837 6.34054 1.91961 6.63737Z" fill="white"/>
<path d="M18.8838 7.77176C16.4436 9.34082 14.5907 10.5602 13.3259 11.4297C12.9018 11.7265 12.5578 11.9582 12.2936 12.1242C12.0294 12.2903 11.678 12.4599 11.2389 12.633C10.8 12.8064 10.391 12.8928 10.0114 12.8928H10H9.98882C9.60936 12.8928 9.20008 12.8064 8.76116 12.633C8.32225 12.4599 7.97063 12.2903 7.70649 12.1242C7.44243 11.9582 7.09827 11.7265 6.67421 11.4297C5.66969 10.73 3.82076 9.51053 1.12735 7.77176C0.703131 7.50334 0.327388 7.19566 0 6.84937V15.2677C0 15.7345 0.174776 16.1336 0.524524 16.4659C0.874193 16.7982 1.29466 16.9643 1.78576 16.9643H18.2144C18.7054 16.9643 19.1258 16.7982 19.4755 16.4659C19.8253 16.1335 20 15.7345 20 15.2677V6.84937C19.68 7.1885 19.3081 7.49617 18.8838 7.77176Z" fill="white"/>
</g>
<defs>
<clipPath id="clip0_51_16681">
<rect width="20" height="19" fill="white"/>
</clipPath>
</defs>
</svg>
