<svg width="70" height="70" viewBox="0 0 70 70" fill="none" xmlns="http://www.w3.org/2000/svg">
<path d="M0 0H50C61.0457 0 70 8.95431 70 20V70H20C8.9543 70 0 61.0457 0 50V0Z" fill="#2581D9"/>
<g clip-path="url(#clip0_51_16591)">
<path d="M25.3101 31.408C25.6146 31.6229 26.5323 32.261 28.0635 33.322C29.5946 34.383 30.7676 35.2 31.5825 35.7729C31.672 35.8357 31.8622 35.9722 32.1531 36.1826C32.4442 36.3932 32.686 36.5634 32.8784 36.6932C33.0709 36.8229 33.3037 36.9685 33.5769 37.1296C33.85 37.2906 34.1075 37.4117 34.3493 37.4918C34.5911 37.5726 34.8149 37.6127 35.0208 37.6127H35.0343H35.0479C35.2538 37.6127 35.4777 37.5726 35.7195 37.4918C35.9612 37.4117 36.2189 37.2904 36.4918 37.1296C36.7648 36.9683 36.9976 36.8229 37.1901 36.6932C37.3827 36.5634 37.6243 36.3932 37.9154 36.1826C38.2063 35.972 38.3967 35.8357 38.4863 35.7729C39.3099 35.2 41.4054 33.7449 44.772 31.4077C45.4256 30.9513 45.9717 30.4005 46.4104 29.7558C46.8494 29.1113 47.0686 28.4353 47.0686 27.728C47.0686 27.1369 46.8559 26.631 46.4305 26.2101C46.0052 25.7892 45.5014 25.5789 44.9196 25.5789H25.1489C24.4595 25.5789 23.9289 25.8117 23.5573 26.2772C23.1858 26.7429 23 27.3249 23 28.0232C23 28.5873 23.2463 29.1986 23.7387 29.8567C24.2311 30.5149 24.755 31.032 25.3101 31.408Z" fill="white"/>
<path d="M45.7254 32.845C42.7887 34.8326 40.5589 36.3773 39.0369 37.4788C38.5265 37.8547 38.1125 38.1482 37.7945 38.3585C37.4765 38.5689 37.0537 38.7838 36.5253 39.0031C35.9971 39.2227 35.5048 39.3321 35.0481 39.3321H35.0344H35.0209C34.5642 39.3321 34.0717 39.2227 33.5435 39.0031C33.0153 38.7838 32.5921 38.5689 32.2742 38.3585C31.9565 38.1482 31.5423 37.8547 31.032 37.4788C29.8231 36.5924 27.598 35.0476 24.3567 32.845C23.8462 32.5049 23.394 32.1152 23 31.6765V42.3406C23 42.9319 23.2103 43.4376 23.6312 43.8584C24.052 44.2794 24.558 44.4898 25.149 44.4898H44.9198C45.5107 44.4898 46.0166 44.2794 46.4375 43.8584C46.8584 43.4374 47.0687 42.9319 47.0687 42.3406V31.6765C46.6836 32.1061 46.236 32.4959 45.7254 32.845Z" fill="white"/>
</g>
<defs>
<clipPath id="clip0_51_16591">
<rect width="24.0686" height="24.0686" fill="white" transform="translate(23 23)"/>
</clipPath>
</defs>
</svg>
