<svg width="22" height="22" viewBox="0 0 22 22" fill="none" xmlns="http://www.w3.org/2000/svg">
<g clip-path="url(#clip0_51_16665)">
<path d="M20.6491 15.5377C20.5927 15.493 16.5 12.5429 15.3766 12.7547C14.8404 12.8496 14.5338 13.2153 13.9184 13.9475C13.8194 14.0657 13.5816 14.349 13.3966 14.5504C13.0078 14.4236 12.6285 14.2692 12.2616 14.0884C10.3679 13.1665 8.83781 11.6364 7.91587 9.74275C7.73497 9.37591 7.58057 8.99658 7.45388 8.60768C7.656 8.42206 7.93925 8.18418 8.06025 8.08243C8.789 7.47056 9.15544 7.16393 9.25031 6.62631C9.44487 5.51256 6.49687 1.39168 6.46594 1.35456C6.33218 1.16348 6.15763 1.00453 5.9549 0.889191C5.75217 0.773857 5.52634 0.705027 5.29375 0.687683C4.09887 0.687683 0.6875 5.11312 0.6875 5.85837C0.6875 5.90168 0.750063 10.3044 6.17925 15.8271C11.6964 21.2501 16.0985 21.3127 16.1418 21.3127C16.8878 21.3127 21.3125 17.9013 21.3125 16.7064C21.2953 16.4747 21.2269 16.2496 21.1122 16.0475C20.9975 15.8453 20.8393 15.6712 20.6491 15.5377Z" fill="white"/>
</g>
<defs>
<clipPath id="clip0_51_16665">
<rect width="22" height="22" fill="white"/>
</clipPath>
</defs>
</svg>
