<svg width="50" height="50" viewBox="0 0 50 50" fill="none" xmlns="http://www.w3.org/2000/svg">
<rect y="0.277344" width="50" height="49" rx="10" fill="#2581D9"/>
<g clip-path="url(#clip0_51_15305)">
<path d="M33.2799 32.525L28.3057 27.5508C29.2692 26.3607 29.8494 24.8484 29.8494 23.2013C29.8494 19.3838 26.7432 16.2776 22.9256 16.2776C19.1081 16.2776 16.002 19.3838 16.002 23.2013C16.002 27.0188 19.1082 30.125 22.9257 30.125C24.5728 30.125 26.0851 29.5449 27.2752 28.5814L32.2494 33.5555C32.3915 33.6976 32.578 33.7691 32.7646 33.7691C32.9512 33.7691 33.1378 33.6976 33.2799 33.5555C33.5649 33.2706 33.5649 32.8099 33.2799 32.525ZM22.9257 28.6674C19.9113 28.6674 17.4596 26.2157 17.4596 23.2013C17.4596 20.1869 19.9113 17.7352 22.9257 17.7352C25.9401 17.7352 28.3918 20.1869 28.3918 23.2013C28.3918 26.2157 25.94 28.6674 22.9257 28.6674Z" fill="white"/>
</g>
<defs>
<clipPath id="clip0_51_15305">
<rect width="17.4917" height="17.4917" fill="white" transform="translate(16 16.2773)"/>
</clipPath>
</defs>
</svg>
