<svg width="69" height="68" viewBox="0 0 69 68" fill="none" xmlns="http://www.w3.org/2000/svg">
<path fill-rule="evenodd" clip-rule="evenodd" d="M68.6327 23.8877C67.9157 26.5494 66.3486 28.4384 64.1492 29.0224C64.1211 29.0385 64.0867 29.0429 64.0551 29.0527C64.0024 29.066 63.9477 29.0751 63.8945 29.0868C63.9472 29.0754 64.001 29.0663 64.0529 29.0532C54.9818 31.3353 38.8548 15.2636 38.8174 15.3011C39.3179 15.467 39.8007 15.5535 40.2915 15.5577C41.2599 15.5655 42.2582 15.2611 43.4874 14.6315C46.2628 13.2101 49.1909 12.0903 52.2113 11.3136C56.886 10.1117 63.7499 9.95546 67.1724 14.5738C69.2209 17.3385 69.1765 20.1517 68.6327 23.8877ZM57.7889 27.849C58.1088 28.0205 58.4237 28.1725 58.7348 28.3116C58.424 28.1725 58.1088 28.0205 57.7889 27.849Z" fill="url(#paint0_linear_106_11001)"/>
<path opacity="0.412" fill-rule="evenodd" clip-rule="evenodd" d="M47.9108 22.8793C49.6399 24.0762 51.4357 25.2571 53.2064 26.3337C57.0595 28.5004 61.0522 29.9851 64.0535 29.0536C63.8188 29.1122 63.5755 29.1538 63.3271 29.1835C63.576 29.1538 63.8205 29.1122 64.0558 29.0531C64.0874 29.0434 64.1218 29.0389 64.1534 29.0284C64.1523 29.0264 64.1509 29.0248 64.1498 29.0228C66.3493 28.4388 67.9164 26.5498 68.6333 23.8881C68.7388 23.162 68.8162 22.4472 68.8648 21.7461C63.7514 30.2997 50.444 24.0457 47.9108 22.8793Z" fill="url(#paint1_linear_106_11001)"/>
<path opacity="0.478" fill-rule="evenodd" clip-rule="evenodd" d="M39.8587 15.9176C40.8606 16.0094 41.9205 15.7805 43.2476 15.235C46.2442 14.0028 49.3729 13.0963 52.5673 12.5531C57.5117 11.7121 64.632 12.1432 67.777 17.2211C68.3622 18.1659 68.7367 19.0981 68.9496 20.0493C68.9182 18.0613 68.4573 16.308 67.1724 14.5738C63.7499 9.95546 56.886 10.1117 52.2113 11.3136C49.1909 12.0903 46.2628 13.2101 43.4874 14.6315C42.2579 15.2611 41.2599 15.5655 40.2915 15.5577C39.8007 15.5533 39.3179 15.467 38.8174 15.3011C38.8215 15.2969 39.0294 15.4961 39.3909 15.8349C39.5463 15.8657 39.7011 15.9031 39.8587 15.9176Z" fill="url(#paint2_linear_106_11001)"/>
<path fill-rule="evenodd" clip-rule="evenodd" d="M42.4818 54.8776C42.769 56.7219 45.5025 67.4037 49.7294 66.9392C53.9646 66.2317 57.6959 61.7301 62.5823 47.8573C62.6492 47.6694 62.7141 47.4938 62.7788 47.3223C65.0659 40.2997 68.3735 30.7106 68.9659 22.2277C68.9026 22.581 68.8258 22.922 68.7378 23.2532C68.7109 23.3542 68.6765 23.4483 68.6479 23.5471C68.5813 23.774 68.5128 23.9988 68.4337 24.2133C68.3952 24.3181 68.3502 24.4172 68.3089 24.519C68.2281 24.7177 68.1449 24.9133 68.0536 25.1C68.007 25.1949 67.9562 25.2854 67.9068 25.3769C67.8086 25.5601 67.7062 25.7374 67.5972 25.9063C67.5453 25.9863 67.4923 26.0631 67.4382 26.1394C67.3186 26.3098 67.1935 26.4713 67.0625 26.6252C67.0095 26.6871 66.9568 26.7484 66.9021 26.8078C66.7565 26.9654 66.6039 27.1119 66.4457 27.2498C66.3963 27.2925 66.3486 27.3367 66.2986 27.3774C66.1191 27.5234 65.9299 27.6544 65.7357 27.7751C65.6999 27.7973 65.6658 27.8222 65.6288 27.8436C65.3936 27.9809 65.1497 28.1013 64.8975 28.2062C64.8672 28.2204 64.8336 28.2279 64.8028 28.2415C64.7693 28.254 64.7324 28.2601 64.6982 28.2717C64.7318 28.2603 64.7679 28.2542 64.8009 28.242C56.0098 31.482 39.0066 15.2801 38.9727 15.3242C38.493 15.1913 37.9933 14.9818 37.4511 14.6935C34.5372 13.145 31.2643 12.1417 27.7979 11.7846C23.376 11.3482 18.097 11.647 14.9084 15.3769C8.07975 23.3481 14.0338 38.1821 16.2594 46.8503C20.1355 62.2573 23.0231 67.42 27.2377 67.9866C27.5673 68.0277 27.8678 67.9705 28.1459 67.8834C29.6738 67.4087 30.4718 65.9936 31.0764 65.0316C32.0842 63.434 32.8089 61.7315 33.4562 60.0104C34.053 58.4211 34.5611 56.8024 35.0427 55.1709C35.4107 53.9243 35.6973 51.643 37.5391 51.3025C38.5854 51.1108 40.3681 51.3058 41.1802 52.0275C41.9541 52.7148 42.2718 53.843 42.4818 54.8776Z" fill="url(#paint3_linear_106_11001)"/>
<path fill-rule="evenodd" clip-rule="evenodd" d="M57.6459 58.706C51.9354 62.762 48.3548 55.2674 45.311 50.0869C41.9351 44.291 37.0401 41.5938 31.0988 42.0202C28.1602 42.2325 25.2838 43.3021 22.5871 44.7175C22.0954 44.9652 16.5933 48.0145 16.7079 48.532C20.3244 62.6249 23.2006 67.4458 27.2385 67.9863C27.5687 68.0274 27.8689 67.9699 28.1466 67.8831C29.6743 67.4086 30.4723 65.9933 31.0772 65.0313C32.0849 63.4337 32.8097 61.7312 33.457 60.0101C34.0538 58.4208 34.5618 56.8021 35.0435 55.1706C35.4114 53.9239 35.698 51.6429 37.5398 51.3022C38.5862 51.1108 40.3689 51.3052 41.181 52.0272C41.9548 52.7145 42.2731 53.8426 42.4826 54.8773C42.7697 56.7219 45.5033 67.4034 49.7302 66.9389C52.6014 66.4752 55.3652 64.1415 58.3043 58.254C58.0929 58.3869 57.8751 58.5359 57.6459 58.706Z" fill="url(#paint4_linear_106_11001)"/>
<path fill-rule="evenodd" clip-rule="evenodd" d="M29.7268 20.0033C32.4032 22.0715 34.6112 24.6444 36.4608 27.5414C38.4083 30.5866 39.7828 33.8845 42.4573 36.6783C47.2702 41.6257 55.0566 45.4164 61.5556 40.7423C63.5728 39.2556 65.2284 37.1447 66.6526 34.7885C67.7708 30.6199 68.6898 26.2565 68.9672 22.2277C68.9039 22.581 68.8271 22.922 68.7391 23.2532C68.7122 23.3542 68.6778 23.4483 68.6492 23.5471C68.5826 23.774 68.5141 23.9988 68.435 24.2133C68.3965 24.3181 68.3515 24.4172 68.3102 24.519C68.2294 24.7177 68.1462 24.9133 68.0549 25.1C68.0083 25.1949 67.9575 25.2854 67.9081 25.3769C67.8099 25.5601 67.7075 25.7374 67.5985 25.9063C67.5466 25.9863 67.4936 26.0631 67.4395 26.1394C67.3199 26.3098 67.1948 26.4713 67.0638 26.6252C67.0108 26.6871 66.9581 26.7484 66.9034 26.8078C66.7578 26.9654 66.6052 27.1119 66.447 27.2498C66.3976 27.2925 66.3499 27.3367 66.3 27.3775C66.1204 27.5234 65.9312 27.6544 65.737 27.7751C65.7012 27.7973 65.6671 27.8222 65.6302 27.8436C65.3954 27.9809 65.1504 28.1014 64.8952 28.2007C64.8963 28.2026 64.8974 28.2043 64.8988 28.2062C64.868 28.2204 64.8355 28.2279 64.8042 28.2415C64.8036 28.2415 64.8044 28.2415 64.8042 28.2415C64.7706 28.254 64.7337 28.2601 64.6996 28.2717C64.7331 28.2603 64.7692 28.2542 64.8022 28.242C56.0108 31.4817 39.0087 15.2801 38.9738 15.3239C38.9738 15.3239 38.9738 15.3242 38.974 15.3242C38.4943 15.1913 37.9946 14.9818 37.4524 14.6935C34.5385 13.145 31.2656 12.1417 27.7992 11.7846C23.3773 11.3482 18.0983 11.647 14.9097 15.3769C14.6833 15.6419 14.4733 15.9135 14.2751 16.1902C15.0151 15.1713 19.6094 15.5367 20.6948 15.6474C23.7178 16.0034 26.4216 17.3017 28.701 19.1168C29.0584 19.4018 29.3969 19.6995 29.7268 20.0033Z" fill="url(#paint5_linear_106_11001)"/>
<path fill-rule="evenodd" clip-rule="evenodd" d="M22.9492 12.8282C17.0592 13.4936 14.6492 16.8958 13.5676 19.9421C12.8576 21.9515 12.6697 24.1068 12.927 26.2222C13.3087 29.3794 13.6941 31.0142 13.698 31.0131C21.3879 26.299 28.5256 21.399 35.5699 15.6137C29.8669 12.0752 22.9536 12.8651 22.9492 12.8282Z" fill="url(#paint6_linear_106_11001)"/>
<path fill-rule="evenodd" clip-rule="evenodd" d="M38.5194 15.166C40.8215 17.2803 56.759 32.2017 64.8811 29.2595C64.8481 29.2714 64.8115 29.2772 64.7782 29.2883C64.8123 29.2769 64.849 29.2708 64.8831 29.2589C64.9136 29.2459 64.9475 29.2381 64.978 29.2242C64.9769 29.2223 64.9755 29.2206 64.9744 29.2187C65.231 29.121 65.4755 29.002 65.711 28.866C65.7474 28.8449 65.7818 28.82 65.8181 28.7978C66.0137 28.6787 66.2021 28.5483 66.3822 28.4032C66.4327 28.3627 66.4802 28.3186 66.5295 28.2761C66.6883 28.1391 66.8409 27.9931 66.9863 27.8358C67.0412 27.7767 67.0942 27.7157 67.1469 27.6538C67.2781 27.5001 67.4027 27.3386 67.5226 27.1688C67.577 27.0925 67.6297 27.0153 67.6813 26.9357C67.7906 26.7667 67.8922 26.5892 67.9904 26.4063C68.0398 26.3145 68.0906 26.2243 68.1369 26.1288C68.2282 25.9424 68.3106 25.7462 68.3913 25.547C68.4327 25.4449 68.4771 25.3461 68.5156 25.241C68.5936 25.0257 68.6618 24.8006 68.7282 24.5728C68.7309 24.5645 68.7332 24.5559 68.7362 24.5473C68.8314 23.7654 68.9146 22.9888 68.9668 22.2277C68.9035 22.5809 68.8267 22.9219 68.7387 23.2532C68.7118 23.3542 68.6774 23.4483 68.6488 23.5471C68.5822 23.774 68.5137 23.9988 68.4346 24.2132C68.396 24.3181 68.3511 24.4172 68.3097 24.519C68.229 24.7177 68.1458 24.9133 68.0545 25.1C68.0079 25.1949 67.9571 25.2854 67.9077 25.3769C67.8095 25.56 67.7071 25.7373 67.5981 25.9063C67.5462 25.9862 67.4932 26.0631 67.4391 26.1394C67.3195 26.3098 67.1943 26.4712 67.0634 26.6252C67.0104 26.6871 66.9577 26.7484 66.903 26.8078C66.7573 26.9654 66.6047 27.1119 66.4466 27.2498C66.3972 27.2925 66.3495 27.3366 66.2995 27.3774C66.12 27.5234 65.9308 27.6543 65.7366 27.775C65.7008 27.7972 65.6666 27.8222 65.6297 27.8436C65.395 27.9809 65.15 28.1013 64.8947 28.2007C64.8958 28.2026 64.897 28.2043 64.8983 28.2062C64.8675 28.2204 64.8351 28.2278 64.8037 28.2414C64.8032 28.2414 64.804 28.2414 64.8037 28.2414C64.7702 28.2539 64.7333 28.26 64.6991 28.2717C64.7327 28.2603 64.7688 28.2542 64.8018 28.242C56.0104 31.4817 39.0083 15.2801 38.9733 15.3239C38.9733 15.3239 38.9733 15.3242 38.9736 15.3242C38.8257 15.2831 38.6717 15.2215 38.5194 15.166Z" fill="url(#paint7_linear_106_11001)"/>
<path fill-rule="evenodd" clip-rule="evenodd" d="M38.5194 15.166C40.8215 17.2803 56.759 32.2017 64.8811 29.2595C64.8481 29.2714 64.8115 29.2772 64.7782 29.2883C64.8123 29.2769 64.849 29.2708 64.8831 29.2589C64.9136 29.2459 64.9475 29.2381 64.978 29.2242C64.9769 29.2223 64.9755 29.2206 64.9744 29.2187C65.231 29.121 65.4755 29.002 65.711 28.866C65.7474 28.8449 65.7818 28.82 65.8181 28.7978C66.0137 28.6787 66.2021 28.5483 66.3822 28.4032C66.4327 28.3627 66.4802 28.3186 66.5295 28.2761C66.6883 28.1391 66.8409 27.9931 66.9863 27.8358C67.0412 27.7767 67.0942 27.7157 67.1469 27.6538C67.2781 27.5001 67.4027 27.3386 67.5226 27.1688C67.577 27.0925 67.6297 27.0153 67.6813 26.9357C67.7906 26.7667 67.8922 26.5892 67.9904 26.4063C68.0398 26.3145 68.0906 26.2243 68.1369 26.1288C68.2282 25.9424 68.3106 25.7462 68.3913 25.547C68.4327 25.4449 68.4771 25.3461 68.5156 25.241C68.5936 25.0257 68.6618 24.8006 68.7282 24.5728C68.7309 24.5645 68.7332 24.5559 68.7362 24.5473C68.8314 23.7654 68.9146 22.9888 68.9668 22.2277C68.9035 22.5809 68.8267 22.9219 68.7387 23.2532C68.7118 23.3542 68.6774 23.4483 68.6488 23.5471C68.5822 23.774 68.5137 23.9988 68.4346 24.2132C68.396 24.3181 68.3511 24.4172 68.3097 24.519C68.229 24.7177 68.1458 24.9133 68.0545 25.1C68.0079 25.1949 67.9571 25.2854 67.9077 25.3769C67.8095 25.56 67.7071 25.7373 67.5981 25.9063C67.5462 25.9862 67.4932 26.0631 67.4391 26.1394C67.3195 26.3098 67.1943 26.4712 67.0634 26.6252C67.0104 26.6871 66.9577 26.7484 66.903 26.8078C66.7573 26.9654 66.6047 27.1119 66.4466 27.2498C66.3972 27.2925 66.3495 27.3366 66.2995 27.3774C66.12 27.5234 65.9308 27.6543 65.7366 27.775C65.7008 27.7972 65.6666 27.8222 65.6297 27.8436C65.395 27.9809 65.15 28.1013 64.8947 28.2007C64.8958 28.2026 64.897 28.2043 64.8983 28.2062C64.8675 28.2204 64.8351 28.2278 64.8037 28.2414C64.8032 28.2414 64.804 28.2414 64.8037 28.2414C64.7702 28.2539 64.7333 28.26 64.6991 28.2717C64.7327 28.2603 64.7688 28.2542 64.8018 28.242C56.5434 31.3451 40.8543 16.9828 39.1645 15.5009C39.0519 15.3974 38.9869 15.3364 38.9733 15.3239C38.9733 15.3239 38.9733 15.3242 38.9736 15.3242C38.8257 15.2831 38.6717 15.2215 38.5194 15.166Z" fill="url(#paint8_linear_106_11001)"/>
<path fill-rule="evenodd" clip-rule="evenodd" d="M42.1724 53.6956C41.8741 52.29 40.34 48.1578 35.7078 47.91C28.736 47.5166 25.4577 52.123 20.5963 60.8106C22.6631 65.644 24.7277 67.6717 27.2379 67.9864C27.5676 68.0274 27.8681 67.9703 28.1461 67.8832C29.6741 67.4084 30.472 65.9934 31.0766 65.0314C32.0844 63.4338 32.8091 61.7312 33.4564 60.0101C34.0533 58.4208 34.5613 56.8021 35.043 55.1706C35.4109 53.924 35.6975 51.6427 37.5393 51.3023C38.5856 51.1105 40.3683 51.3056 41.1804 52.0273C41.661 52.4543 41.9607 53.0553 42.1724 53.6956Z" fill="url(#paint9_linear_106_11001)"/>
<path fill-rule="evenodd" clip-rule="evenodd" d="M15.3966 6.91853C9.60432 7.5406 9.10017 8.04503 8.4781 13.8371C7.85603 8.04503 7.35188 7.5406 1.55957 6.91853C7.35188 6.29674 7.85603 5.79231 8.4781 0C9.10017 5.79231 9.60432 6.29674 15.3966 6.91853Z" fill="url(#paint10_linear_106_11001)"/>
<path fill-rule="evenodd" clip-rule="evenodd" d="M24.6123 21.7572C20.8377 22.1626 20.5092 22.4911 20.1038 26.2657C19.6985 22.4911 19.3699 22.1626 15.5953 21.7572C19.3699 21.3519 19.6985 21.0233 20.1038 17.249C20.5092 21.0233 20.8377 21.3519 24.6123 21.7572Z" fill="white"/>
<path fill-rule="evenodd" clip-rule="evenodd" d="M8.16628 18.7335C4.74794 19.1006 4.45022 19.3981 4.08314 22.8164C3.71606 19.3981 3.41834 19.1006 0 18.7335C3.41834 18.3664 3.71606 18.0687 4.08314 14.6504C4.45022 18.0687 4.74794 18.3664 8.16628 18.7335Z" fill="url(#paint11_linear_106_11001)"/>
<defs>
<linearGradient id="paint0_linear_106_11001" x1="38.8174" y1="10.5957" x2="518.235" y2="1906.74" gradientUnits="userSpaceOnUse">
<stop stop-color="#426AF0"/>
<stop offset="0.99" stop-color="#7613CE"/>
</linearGradient>
<linearGradient id="paint1_linear_106_11001" x1="47.9108" y1="21.7461" x2="121.516" y2="799.344" gradientUnits="userSpaceOnUse">
<stop stop-color="#426AF0"/>
<stop offset="0.99" stop-color="#7613CE"/>
</linearGradient>
<linearGradient id="paint2_linear_106_11001" x1="38.8174" y1="10.5957" x2="167.366" y2="1015.12" gradientUnits="userSpaceOnUse">
<stop stop-color="#426AF0"/>
<stop offset="0.99" stop-color="#7613CE"/>
</linearGradient>
<linearGradient id="paint3_linear_106_11001" x1="11.7271" y1="11.6318" x2="1634.04" y2="5417.53" gradientUnits="userSpaceOnUse">
<stop stop-color="#25F1FC"/>
<stop offset="1" stop-color="#426AF0"/>
</linearGradient>
<linearGradient id="paint4_linear_106_11001" x1="1060.07" y1="41.9766" x2="635.482" y2="2661.41" gradientUnits="userSpaceOnUse">
<stop stop-color="#25F1FC"/>
<stop offset="1" stop-color="#426AF0"/>
</linearGradient>
<linearGradient id="paint5_linear_106_11001" x1="14.2751" y1="11.6318" x2="578.346" y2="3182.94" gradientUnits="userSpaceOnUse">
<stop stop-color="#25F1FC"/>
<stop offset="1" stop-color="#426AF0"/>
</linearGradient>
<linearGradient id="paint6_linear_106_11001" x1="1240.57" y1="1548.08" x2="360.223" y2="-165.682" gradientUnits="userSpaceOnUse">
<stop stop-color="white" stop-opacity="0"/>
<stop offset="0.99" stop-color="white"/>
</linearGradient>
<linearGradient id="paint7_linear_106_11001" x1="38.5194" y1="15.166" x2="1173.08" y2="1740.03" gradientUnits="userSpaceOnUse">
<stop stop-color="white" stop-opacity="0"/>
<stop offset="0.52" stop-color="white"/>
<stop offset="1" stop-color="white" stop-opacity="0"/>
</linearGradient>
<linearGradient id="paint8_linear_106_11001" x1="38.5194" y1="15.166" x2="1173.08" y2="1740.03" gradientUnits="userSpaceOnUse">
<stop stop-color="white" stop-opacity="0"/>
<stop offset="0.52" stop-color="white"/>
<stop offset="1" stop-color="white" stop-opacity="0"/>
</linearGradient>
<linearGradient id="paint9_linear_106_11001" x1="568.952" y1="47.8867" x2="88.3648" y2="2009.78" gradientUnits="userSpaceOnUse">
<stop offset="0.01" stop-color="#7613CE"/>
<stop offset="1" stop-color="#426AF0"/>
</linearGradient>
<linearGradient id="paint10_linear_106_11001" x1="1.55957" y1="0" x2="282.231" y2="1354.94" gradientUnits="userSpaceOnUse">
<stop stop-color="#25F1FC"/>
<stop offset="1" stop-color="#426AF0"/>
</linearGradient>
<linearGradient id="paint11_linear_106_11001" x1="0" y1="14.6504" x2="165.634" y2="814.276" gradientUnits="userSpaceOnUse">
<stop stop-color="#25F1FC"/>
<stop offset="1" stop-color="#426AF0"/>
</linearGradient>
</defs>
</svg>
