<svg width="74" height="80" viewBox="0 0 74 80" fill="none" xmlns="http://www.w3.org/2000/svg">
<path d="M51.6289 4.40551C51.5197 4.43279 51.4106 4.46007 51.3015 4.48736C43.3213 6.90188 35.6685 7.14743 28.0566 3.21871C20.5674 -0.669088 9.31331 -1.3648 4.36149 6.86096C2.5199 9.84842 1.82419 13.3679 1.41495 16.8465C-0.0583202 28.96 1.45588 42.7514 4.23872 54.6604C6.08031 62.6406 9.8044 73.199 17.2526 77.6597C19.0942 78.7647 21.4678 79.4195 23.3912 78.4373C24.7417 77.7825 25.6011 76.432 26.215 75.0406C28.343 70.0069 30.4711 51.632 39.6381 55.6835C41.8071 56.6247 43.2803 58.7119 44.017 60.9218C45.6539 65.628 44.9582 70.8254 47.2091 75.4498C47.9048 76.8413 48.846 78.2736 50.2784 78.8056C51.3833 79.2149 52.652 79.0102 53.7569 78.6419C58.6269 76.8822 62.5147 71.3983 64.7655 66.9376C72.4593 51.632 75.2421 33.8709 72.7048 16.9283C71.8863 11.4854 69.8401 6.0834 64.4381 3.79165C60.3867 2.07283 55.8031 3.13686 51.6289 4.40551Z" fill="#25EFFC"/>
<path d="M37.387 51.1822C28.22 47.1716 26.1329 65.5056 23.9639 70.5393C23.35 71.9307 22.4906 73.3221 21.1401 73.9769C19.2167 74.9591 16.884 74.2634 15.0015 73.1584C11.9322 71.3169 9.51767 68.4522 7.59424 65.1373C9.76322 70.2528 12.8325 75 17.2523 77.6601C19.0939 78.7651 21.4675 79.4198 23.391 78.4377C24.7415 77.7829 25.6009 76.4324 26.2147 75.041C28.3428 70.0073 30.4708 51.6323 39.6378 55.6838C40.62 56.0931 41.4385 56.7479 42.1342 57.5663C42.0251 57.1844 41.916 56.8161 41.8068 56.4614C41.0293 54.2106 39.556 52.1644 37.387 51.1822Z" fill="#4269F0"/>
<path d="M72.7052 16.9286C72.2141 13.6138 71.2319 10.3398 69.3494 7.7207C69.8814 9.27582 70.2088 10.8719 70.4543 12.4679C73.0326 29.4105 70.2497 47.1307 62.515 62.4363C60.3051 66.897 56.4174 72.4218 51.5065 74.1406C50.4015 74.5498 49.1738 74.7135 48.0688 74.3452C47.3731 74.0588 46.8002 73.6086 46.3091 73.0766C46.5546 73.8541 46.8411 74.6726 47.2094 75.4502C47.9051 76.8416 48.8464 78.2739 50.2787 78.8059C51.3837 79.2152 52.6523 79.0106 53.7573 78.6423C58.6273 76.8825 62.515 71.3987 64.7659 66.9379C72.4596 51.6323 75.2425 33.8712 72.7052 16.9286Z" fill="#4269F0"/>
<path d="M18.0713 15.5372C18.0713 15.5372 23.0231 27.8553 39.9657 23.8448C56.9083 19.8751 59.9367 2.8916 59.9367 2.8916C59.9367 2.8916 52.6931 3.42362 48.4779 5.79722C45.3677 7.14772 42.9122 9.03022 40.2113 10.9946C35.4641 14.4731 30.1848 18.1563 24.1281 17.9517C22 17.8698 19.9129 17.256 18.0713 16.2738" fill="#4269F0"/>
</svg>
