<svg width="80" height="79" viewBox="0 0 80 79" fill="none" xmlns="http://www.w3.org/2000/svg">
<path d="M69.1223 1.32938C63.2131 -1.1919 55.531 1.60515 49.543 4.75676C43.7519 7.82957 36.7789 7.82957 30.9879 4.75676C25.0392 1.60515 17.3178 -1.1919 11.4086 1.32938C0.220355 6.0174 -2.14335 19.3723 4.31744 30.9545C10.8176 42.5366 11.6055 54.5127 12.9844 66.5282C13.2601 68.9707 13.5359 71.6102 14.4026 73.9345C15.8208 77.6376 20.0361 79.568 23.5422 77.4012C27.1666 75.1951 29.6485 70.9405 31.697 67.3949C33.5092 64.1645 35.9123 59.0431 40.2851 59.0431C44.6186 59.0431 47.0217 64.1645 48.8339 67.3949C50.8824 70.9405 53.3643 75.1951 56.9886 77.4012C60.5342 79.568 64.71 77.6376 66.1283 73.9345C66.995 71.6102 67.2707 68.9707 67.5859 66.5282C68.9253 54.5127 69.7132 42.5366 76.2134 30.9545C82.6742 19.3723 80.3499 6.0174 69.1223 1.32938Z" fill="#25EFFC"/>
<path d="M76.2531 6.80566C76.8834 11.73 75.741 17.2454 72.8652 22.4061C66.365 33.9883 65.5771 45.9644 64.1982 57.9405C63.9225 60.3829 63.6467 63.0618 62.78 65.3467C61.3618 69.0499 57.1859 71.0196 53.6404 68.8529C50.016 66.6468 47.5341 62.3921 45.4856 58.8071C43.6734 55.6161 41.2703 50.4948 36.9369 50.4948C32.564 50.4948 30.1609 55.6161 28.3487 58.8071C26.3002 62.3921 23.8183 66.6468 20.194 68.8529C17.8303 70.3105 15.112 69.8772 13.1816 68.3013C13.418 70.2317 13.7726 72.2015 14.4029 73.9349C15.8211 77.638 20.0364 79.5683 23.5425 77.4016C27.1669 75.1955 29.6488 70.9408 31.6973 67.3953C33.5095 64.1649 35.9126 59.0435 40.2854 59.0435C44.6189 59.0435 47.022 64.1649 48.8342 67.3953C50.8827 70.9408 53.3646 75.1955 56.9889 77.4016C60.5345 79.5683 64.7104 77.638 66.1286 73.9349C66.9953 71.6105 67.271 68.9711 67.5862 66.5286C68.9256 54.5131 69.7136 42.537 76.2137 30.9548C80.9411 22.4849 80.9411 13.1089 76.2531 6.80566Z" fill="#4269F0"/>
<path d="M18.4215 12.7938C21.967 13.7393 25.6702 13.9756 29.2551 13.5029C32.8401 13.0696 36.2675 11.7695 39.4978 10.1937C41.1524 9.36642 42.7282 8.46033 44.304 7.55425C45.0919 7.1209 45.8798 6.68755 46.7071 6.25421C47.5344 5.82086 48.3223 5.38752 49.1496 4.95418C50.8042 4.16628 52.4194 3.33898 54.1134 2.59047C55.8468 1.84197 57.6196 1.17225 59.4317 0.896484L59.4711 1.05406C56.0438 2.3541 53.0891 4.48143 49.8587 6.29361C46.7465 8.14517 43.4767 9.87856 40.0494 11.3362C36.6614 12.8332 33.0765 14.015 29.3339 14.3302C25.6308 14.606 21.8882 14.0938 18.3821 12.912L18.4215 12.7938Z" fill="#E3F9FE"/>
<path d="M50.2917 19.5304C47.4947 18.3091 43.3976 21.1062 40.2854 26.0699C37.1338 21.1062 33.0761 18.3091 30.2396 19.5304C26.7335 21.0668 26.4577 28.1973 29.6093 35.5247C32.1306 41.3158 36.0701 45.4523 39.3793 46.1614C39.4318 46.1877 39.4843 46.2008 39.5369 46.2008C39.6157 46.2008 39.6945 46.2139 39.7733 46.2402C39.9308 46.2665 40.1015 46.2796 40.2854 46.2796C40.443 46.2796 40.6137 46.2665 40.7975 46.2402C40.85 46.2139 40.9157 46.2008 40.9945 46.2008C41.047 46.2008 41.1127 46.1877 41.1915 46.1614C44.4613 45.4523 48.4008 41.3158 50.922 35.5247C54.113 28.1973 53.8373 21.0668 50.2917 19.5304Z" fill="#184CFF"/>
<path d="M48.5981 21.7759C46.2344 20.7517 42.8858 23.076 40.2857 27.2125C37.6857 23.076 34.2977 20.7517 31.934 21.7759C29.0187 23.0366 28.7824 28.9852 31.4218 35.0521C33.5098 39.8583 36.7796 43.325 39.4978 43.8766C39.5504 43.9028 39.6029 43.916 39.6554 43.916C39.7342 43.916 39.7998 43.9291 39.8524 43.9554C39.9837 43.9554 40.1282 43.9554 40.2857 43.9554C40.4171 43.9554 40.5484 43.9554 40.6797 43.9554C40.7585 43.9291 40.8241 43.916 40.8767 43.916C40.9292 43.916 40.9817 43.9028 41.0342 43.8766C43.7525 43.325 47.0223 39.8583 49.1102 35.0521C51.7497 28.9852 51.5133 23.0366 48.5981 21.7759Z" fill="#4269F0"/>
</svg>
