<svg width="82" height="80" viewBox="0 0 82 80" fill="none" xmlns="http://www.w3.org/2000/svg">
<path d="M70.801 2.67667C64.9275 0.209809 57.2529 2.95077 51.3403 6.08328C45.5843 9.13749 38.6144 9.13749 32.8584 6.08328C26.9458 2.95077 19.2711 0.209809 13.3976 2.67667C2.2772 7.37544 -0.0721824 20.6495 6.38863 32.1615C12.8103 43.6735 13.5934 55.5771 14.9639 67.4806C15.238 69.9083 15.5512 72.571 16.4127 74.8812C17.7832 78.5228 21.9729 80.4806 25.497 78.327C29.0994 76.1342 31.5271 71.9053 33.5632 68.3421C35.4036 65.1704 37.753 60.0801 42.0993 60.0801C46.4457 60.0801 48.7951 65.1704 50.6354 68.3421C52.6716 71.9053 55.0993 76.1342 58.7017 78.327C62.2258 80.4806 66.4155 78.5228 67.786 74.8812C68.6474 72.571 68.9607 69.9083 69.2348 67.4806C70.6052 55.5771 71.3884 43.6735 77.81 32.1615C84.2708 20.6495 81.9215 7.37544 70.801 2.67667Z" fill="#4269F0"/>
<path d="M68.2178 0.95401C62.3443 -1.51285 54.6696 1.22811 48.757 4.36063C43.001 7.41483 36.0312 7.41483 30.2752 4.36063C24.3625 1.22811 16.6879 -1.51285 10.8144 0.95401C-0.306049 5.65279 -2.65543 18.9268 3.80538 30.4388C10.227 41.9508 11.0102 53.8544 12.3806 65.758C12.6547 68.1857 12.968 70.8483 13.8294 73.1585C15.1999 76.8001 19.3897 78.7579 22.9137 76.6043C26.5161 74.4115 28.9438 70.1826 30.98 66.6194C32.8203 63.4477 35.1697 58.3574 39.5161 58.3574C43.8624 58.3574 46.2118 63.4477 48.0522 66.6194C50.0883 70.1826 52.516 74.4115 56.1184 76.6043C59.6425 78.7579 63.8322 76.8001 65.2027 73.1585C66.0642 70.8483 66.3774 68.1857 66.6515 65.758C68.022 53.8544 68.8051 41.9508 75.2268 30.4388C81.6876 18.9268 79.3382 5.65279 68.2178 0.95401Z" fill="#25EFFC"/>
<path d="M37.4799 47.8626C35.7178 47.8626 34.269 46.4138 34.269 44.6517V39.8355H29.4528C27.6907 39.8355 26.2419 38.3867 26.2419 36.6246V32.5524C26.2419 30.7903 27.6907 29.3415 29.4528 29.3415H34.269V24.5253C34.269 22.7632 35.7178 21.3145 37.4799 21.3145H41.5521C43.3142 21.3145 44.763 22.7632 44.763 24.5253V29.3415H49.5792C51.3412 29.3415 52.79 30.7903 52.79 32.5524V36.6246C52.79 38.3867 51.3412 39.8355 49.5792 39.8355H44.763V44.6517C44.763 46.4138 43.3142 47.8626 41.5521 47.8626H37.4799Z" fill="#184CFF"/>
<path d="M49.5794 30.8689H43.2361V24.5255C43.2361 23.5858 42.4921 22.8418 41.5524 22.8418H37.4801C36.5403 22.8418 35.7964 23.5858 35.7964 24.5255V30.8689H29.453C28.5133 30.8689 27.7693 31.6128 27.7693 32.5526V36.6249C27.7693 37.5646 28.5133 38.3086 29.453 38.3086H35.7964V44.652C35.7964 45.5917 36.5403 46.3357 37.4801 46.3357H41.5524C42.4921 46.3357 43.2361 45.5917 43.2361 44.652V38.3086H49.5794C50.5192 38.3086 51.2632 37.5646 51.2632 36.6249V32.5526C51.2632 31.6128 50.5192 30.8689 49.5794 30.8689Z" fill="#4269F0"/>
<path d="M17.8237 12.3486C21.3086 13.2884 24.9893 13.5624 28.5525 13.0926C32.1158 12.6227 35.5224 11.3697 38.7724 9.76427C40.3778 8.98114 41.9441 8.08055 43.5495 7.17995C44.3326 6.74923 45.1157 6.27934 45.938 5.84862C46.7211 5.4179 47.5434 4.9872 48.3657 4.59564C50.0103 3.77335 51.6157 2.95105 53.2994 2.20708C54.9832 1.4631 56.7452 0.836595 58.5855 0.5625L58.6247 0.679989C55.2181 2.01131 52.2422 4.0866 49.0705 5.88779C45.938 7.7673 42.688 9.49017 39.3206 10.939C35.914 12.3878 32.3507 13.5624 28.6309 13.8757C24.9501 14.1498 21.2303 13.6408 17.7454 12.5052L17.8237 12.3486Z" fill="#E3F9FE"/>
</svg>
