<svg width="73" height="91" viewBox="0 0 73 91" fill="none" xmlns="http://www.w3.org/2000/svg">
<path d="M34.1264 46.8747C32.3803 46.8747 30.9446 45.439 30.9446 43.6929V38.9201H26.1718C24.4257 38.9201 22.99 37.4844 22.99 35.7383V31.7028C22.99 29.9567 24.4257 28.521 26.1718 28.521H30.9446V23.7482C30.9446 22.0021 32.3803 20.5664 34.1264 20.5664H38.1619C39.908 20.5664 41.3437 22.0021 41.3437 23.7482V28.521H46.1165C47.8626 28.521 49.2983 29.9567 49.2983 31.7028V35.7383C49.2983 37.4844 47.8626 38.9201 46.1165 38.9201H41.3437V43.6929C41.3437 45.439 39.908 46.8747 38.1619 46.8747H34.1264Z" fill="#184CFF"/>
<path d="M46.1166 30.0347H39.8305V23.7486C39.8305 22.8173 39.0933 22.0801 38.162 22.0801H34.1265C33.1952 22.0801 32.458 22.8173 32.458 23.7486V30.0347H26.1719C25.2407 30.0347 24.5034 30.7719 24.5034 31.7032V35.7387C24.5034 36.6699 25.2407 37.4072 26.1719 37.4072H32.458V43.6932C32.458 44.6245 33.1952 45.3618 34.1265 45.3618H38.162C39.0933 45.3618 39.8305 44.6245 39.8305 43.6932V37.4072H46.1166C47.0478 37.4072 47.7851 36.6699 47.7851 35.7387V31.7032C47.7851 30.7719 47.0478 30.0347 46.1166 30.0347Z" fill="#4269F0"/>
<path d="M14.6484 11.6797C18.1019 12.6109 21.7493 12.8825 25.2804 12.4169C28.8114 11.9513 32.1873 10.7096 35.4079 9.11866C36.9988 8.3426 38.5509 7.45015 40.1418 6.55768C40.9179 6.13085 41.694 5.66521 42.5088 5.23838C43.2849 4.81155 44.0997 4.38473 44.9146 3.99671C46.5443 3.18185 48.1352 2.36698 49.8037 1.62972C51.4723 0.892469 53.2184 0.27162 55.0421 0L55.0809 0.116427C51.7051 1.43572 48.7561 3.49227 45.613 5.27719C42.5088 7.13973 39.2882 8.84704 35.9511 10.2827C32.5753 11.7184 29.0442 12.8825 25.358 13.193C21.7105 13.4646 18.0242 12.9601 14.5708 11.8349L14.6484 11.6797Z" fill="#E3F9FE"/>
<path d="M72.8236 20.432C72.8236 18.4012 72.5335 16.6606 71.6632 14.92C69.3424 10.2784 64.4107 7.6675 59.1889 7.08729C53.967 6.21699 48.4551 7.66748 44.3937 9.40809C40.6223 11.1487 36.2708 11.1487 32.4995 9.40809C28.4381 7.66748 22.9262 6.21699 17.4142 7.08729C10.1617 7.9576 3.77948 13.1794 4.06958 21.3023C4.35968 27.1043 7.55078 32.9063 9.29139 38.4182C11.3221 43.6401 13.3528 49.4421 12.4825 54.954C10.7419 65.6878 5.52007 86.5751 13.6429 89.7662C21.7658 92.9573 27.2777 81.3533 28.4381 69.7492C29.5985 58.1451 38.3015 59.0155 38.3015 59.0155C38.3015 59.0155 47.2947 58.1451 48.4551 69.7492C49.6155 81.3533 55.1274 92.9573 63.2503 89.7662C71.3731 86.5751 66.1513 65.6878 64.4107 54.954C63.2503 47.4114 67.0216 39.5786 69.9226 32.6162C71.3731 28.8449 72.8236 24.4934 72.8236 20.432Z" fill="#4269F0"/>
<path d="M69.4103 17.3138C69.4103 15.2831 69.1202 13.5425 68.2499 11.8019C65.9291 7.16024 60.9974 4.54933 55.7755 3.96913C50.5537 3.09882 45.0418 4.54932 40.9803 6.28993C37.209 8.03054 32.8575 8.03054 29.0862 6.28993C25.0248 4.54932 19.5128 3.09882 14.0009 3.96913C6.74837 4.83943 0.366147 10.0613 0.656249 18.1841C0.94635 23.9861 4.13745 29.7881 5.87806 35.3001C7.90877 40.5219 9.93948 46.3239 9.06917 51.8359C7.32857 62.5696 2.10674 83.4569 10.2296 86.648C18.3524 89.8391 23.8643 78.2351 25.0248 66.631C26.1852 55.027 34.8882 55.8973 34.8882 55.8973C34.8882 55.8973 43.8814 55.027 45.0418 66.631C46.2022 78.2351 51.7141 89.8391 59.8369 86.648C67.9598 83.4569 62.738 62.5696 60.9973 51.8359C59.8369 44.2932 63.6083 36.4605 66.5093 29.498C67.9598 25.7267 69.4103 21.3752 69.4103 17.3138Z" fill="#25EFFC"/>
<path d="M44.4613 26.8871C44.0744 26.6937 43.6876 26.597 43.3008 26.597C42.1404 26.3069 41.2701 26.597 40.1097 27.1772C40.1097 27.1772 38.079 23.1158 37.7889 22.8257C37.2087 22.2455 36.3384 21.9554 35.7582 22.2455C34.8879 22.2455 34.3077 23.1158 34.5978 23.9861C33.7275 22.8257 32.8572 21.6653 31.6968 20.795C30.5364 20.2148 29.0859 21.0851 29.0859 22.2455L27.6354 21.3752C27.3453 21.3752 26.7651 21.0851 26.7651 21.0851C25.8948 20.5049 24.1541 19.0544 21.8333 21.3752C19.8026 23.696 21.5432 25.4366 21.8333 26.0168C22.0267 26.4036 22.2201 26.6937 22.4135 26.8871L23.5739 28.3376C22.1234 28.6277 21.5432 30.0782 22.1234 30.9485C23.2838 32.399 25.3146 33.5594 25.3146 33.5594C25.3146 33.5594 22.9937 33.8496 23.864 36.1704C24.7344 37.6209 29.376 39.0714 29.376 39.0714C29.376 39.0714 27.3452 40.5219 29.376 43.4229C30.8265 45.7437 35.178 46.0338 37.7889 46.0338C43.0107 45.4536 47.0722 41.6823 47.3623 36.1704C47.6524 33.8496 47.3623 30.6584 45.9118 28.3376C45.525 27.7574 45.0415 27.2739 44.4613 26.8871Z" fill="#4269F0"/>
<path d="M47.3619 45.1631C45.6213 42.8422 43.5906 41.1016 41.5599 39.0709C39.4325 36.9435 37.4018 35.0095 35.4678 33.2689C33.9206 31.9151 32.3733 30.658 30.8261 29.4976L22.9934 22.5352C27.3449 24.856 31.6964 28.0471 36.6282 32.1085C40.6896 35.8798 44.751 39.9412 47.652 44.873C47.652 45.0664 47.5553 45.1631 47.3619 45.1631Z" fill="white"/>
<path fill-rule="evenodd" clip-rule="evenodd" d="M23.2843 22.2452C27.3457 24.566 31.6972 27.7571 36.629 32.1086C40.6904 35.88 44.7518 39.9414 47.6528 44.8731C47.6528 45.0665 47.6528 45.1632 47.6528 45.1632C47.4594 45.3566 47.3627 45.4533 47.3627 45.4533C47.3627 45.4533 47.266 45.3566 47.0726 45.1632C45.6221 43.1325 43.5914 41.1018 41.5607 39.0711C39.4333 37.1371 37.4026 35.2997 35.4686 33.5591C33.9214 32.2053 32.3741 30.8515 30.8269 29.4977C30.2467 28.9175 29.6665 28.434 29.0863 28.0472L22.7041 22.5353C22.7041 22.5353 22.7041 22.4386 22.7041 22.2452C22.8975 22.0518 22.9942 21.9551 22.9942 21.9551C22.9942 21.9551 23.0909 22.0518 23.2843 22.2452ZM29.3764 27.7571C31.4071 29.4977 33.728 31.5284 35.7587 33.269C37.6927 35.0097 39.7234 36.847 41.8508 38.781C43.5914 40.8117 45.6221 42.8424 47.3627 45.1632C44.7518 40.2315 40.6904 36.17 36.3389 32.3987C32.2774 28.6274 27.9259 25.1462 22.9942 22.2452L29.3764 27.7571Z" fill="#3EC1CB"/>
</svg>
