<svg width="87" height="62" viewBox="0 0 87 62" fill="none" xmlns="http://www.w3.org/2000/svg">
<path d="M80.5094 14.1377C55.3351 40.6522 19.1493 42.7169 5.71093 36.5954C-1.75081 33.2267 0.241406 27.5761 0.241406 27.5761C0.241406 27.5761 1.76273 33.2267 12.3033 34.7843C25.7417 36.7403 54.2122 36.2331 80.5094 14.1377Z" fill="#25EFFC"/>
<path d="M38.4556 40.4705C38.4556 40.4705 68.1939 35.5443 86.2687 11.2031C86.2687 11.2031 73.3736 38.8768 38.4556 40.4705Z" fill="#25EFFC"/>
<path d="M10.7466 43.2969C14.7672 51.8815 19.5848 60.285 20.9612 61.1182C23.0259 62.3859 27.4449 62.3859 28.3867 60.4661C29.908 57.3873 34.2909 52.9682 37.8407 52.9682C41.3904 52.9682 45.1937 56.9888 47.3308 60.4661C48.4537 62.3135 52.6555 62.3859 54.7564 61.1182C56.6037 59.959 65.1159 44.3473 68.9916 33.7705C63.8119 37.5376 45.0851 48.7664 10.7466 43.2969Z" fill="#25EFFC"/>
<path d="M71.6352 17.796C71.4541 10.7689 68.665 4.24896 61.167 1.31497C49.7571 -3.14034 43.9253 5.15451 37.84 5.15451C31.7909 5.15451 25.9592 -3.14034 14.5492 1.31497C3.1393 5.8065 2.63219 18.5567 5.56618 28.7713C5.68692 29.1818 5.80766 29.6044 5.9284 30.0391C7.55839 30.7997 9.65927 31.4517 12.3035 31.8502C24.2568 33.5888 48.0546 33.3715 71.6352 17.796Z" fill="#25EFFC"/>
<path d="M20.9965 3.01704C12.9914 2.03905 7.77545 8.66768 7.05101 16.2743C6.32657 23.8809 9.73144 29.8576 14.0056 25.8369C18.2798 21.8163 19.1492 15.6948 24.7636 14.1372C30.378 12.5434 29.0016 3.99504 20.9965 3.01704Z" fill="#4269F0"/>
</svg>
