<svg width="66" height="87" viewBox="0 0 66 87" fill="none" xmlns="http://www.w3.org/2000/svg">
<path d="M0 0H66V55C66 72.6731 51.6731 87 34 87H32C14.3269 87 0 72.6731 0 55V0Z" fill="#2581D9"/>
<path d="M34.771 48.5259H29.915C29.9277 47.3833 30.0166 46.3994 30.1816 45.5742C30.3594 44.7363 30.6577 43.981 31.0767 43.3081C31.5083 42.6353 32.0796 41.9688 32.7905 41.3086C33.3872 40.7754 33.9077 40.2676 34.3521 39.7852C34.7964 39.3027 35.1455 38.8076 35.3994 38.2998C35.6533 37.7793 35.7803 37.2017 35.7803 36.5669C35.7803 35.8306 35.666 35.2212 35.4375 34.7388C35.2217 34.2437 34.8916 33.8691 34.4473 33.6152C34.0156 33.3613 33.4697 33.2344 32.8096 33.2344C32.2637 33.2344 31.7559 33.355 31.2861 33.5962C30.8164 33.8247 30.4292 34.1802 30.1245 34.6626C29.8325 35.145 29.6802 35.7798 29.6675 36.5669H24.145C24.1831 34.8276 24.583 33.3931 25.3447 32.2632C26.1191 31.1206 27.1538 30.2764 28.4487 29.7305C29.7437 29.1719 31.1973 28.8926 32.8096 28.8926C34.5869 28.8926 36.1104 29.1846 37.3799 29.7686C38.6494 30.3398 39.6206 31.1841 40.2935 32.3013C40.9663 33.4058 41.3027 34.7515 41.3027 36.3384C41.3027 37.4429 41.0869 38.4268 40.6553 39.29C40.2236 40.1406 39.6587 40.9341 38.9604 41.6704C38.2622 42.4067 37.4941 43.1685 36.6562 43.9556C35.9326 44.603 35.4375 45.2822 35.1709 45.9932C34.917 46.7041 34.7837 47.5483 34.771 48.5259ZM29.3438 54.4102C29.3438 53.5977 29.623 52.9248 30.1816 52.3916C30.7402 51.8457 31.4893 51.5728 32.4287 51.5728C33.3555 51.5728 34.0981 51.8457 34.6567 52.3916C35.228 52.9248 35.5137 53.5977 35.5137 54.4102C35.5137 55.1973 35.228 55.8638 34.6567 56.4097C34.0981 56.9556 33.3555 57.2285 32.4287 57.2285C31.4893 57.2285 30.7402 56.9556 30.1816 56.4097C29.623 55.8638 29.3438 55.1973 29.3438 54.4102Z" fill="white"/>
</svg>
