<svg width="40" height="40" viewBox="0 0 40 40" fill="none" xmlns="http://www.w3.org/2000/svg">
<circle cx="20" cy="20" r="19.5" stroke="white"/>
<g clip-path="url(#clip0_5020_5235)">
<path d="M12.7276 17.9387C12.9553 18.0904 13.6417 18.5411 14.7868 19.2906C15.9319 20.04 16.8091 20.617 17.4185 21.0217C17.4854 21.066 17.6277 21.1625 17.8453 21.3111C18.0629 21.4598 18.2438 21.58 18.3876 21.6717C18.5316 21.7633 18.7057 21.8661 18.9101 21.9799C19.1143 22.0936 19.3069 22.1791 19.4877 22.2358C19.6685 22.2929 19.8359 22.3211 19.9899 22.3211H20H20.0101C20.1641 22.3211 20.3316 22.2928 20.5124 22.2358C20.6932 22.1791 20.8859 22.0935 21.09 21.9799C21.2942 21.866 21.4682 21.7633 21.6122 21.6717C21.7562 21.58 21.9369 21.4598 22.1546 21.3111C22.3722 21.1623 22.5146 21.066 22.5816 21.0217C23.1975 20.617 24.7647 19.5892 27.2824 17.9385C27.7712 17.6161 28.1796 17.2271 28.5077 16.7717C28.836 16.3165 29 15.839 29 15.3394C29 14.922 28.8409 14.5646 28.5228 14.2674C28.2047 13.9701 27.8279 13.8215 27.3928 13.8215H12.6071C12.0915 13.8215 11.6947 13.9859 11.4168 14.3148C11.1389 14.6436 11 15.0547 11 15.548C11 15.9464 11.1842 16.3782 11.5525 16.843C11.9207 17.3078 12.3125 17.6731 12.7276 17.9387Z" fill="white"/>
<path d="M27.9954 18.9537C25.7992 20.3576 24.1316 21.4486 22.9934 22.2266C22.6117 22.4921 22.302 22.6994 22.0642 22.8479C21.8264 22.9965 21.5102 23.1483 21.115 23.3032C20.72 23.4583 20.3519 23.5356 20.0103 23.5356H20H19.9899C19.6484 23.5356 19.2801 23.4583 18.885 23.3032C18.49 23.1483 18.1736 22.9965 17.9358 22.8479C17.6982 22.6994 17.3884 22.4921 17.0068 22.2266C16.1027 21.6005 14.4387 20.5094 12.0146 18.9537C11.6328 18.7135 11.2946 18.4382 11 18.1284V25.6605C11 26.0782 11.1573 26.4353 11.4721 26.7326C11.7868 27.0299 12.1652 27.1786 12.6072 27.1786H27.393C27.8348 27.1786 28.2132 27.0299 28.528 26.7326C28.8428 26.4352 29 26.0782 29 25.6605V18.1284C28.712 18.4318 28.3773 18.7071 27.9954 18.9537Z" fill="white"/>
</g>
<defs>
<clipPath id="clip0_5020_5235">
<rect width="18" height="17" fill="white" transform="translate(11 12)"/>
</clipPath>
</defs>
</svg>
