<svg width="40" height="40" viewBox="0 0 40 40" fill="none" xmlns="http://www.w3.org/2000/svg">
<circle cx="20" cy="20" r="19.5" stroke="white"/>
<g clip-path="url(#clip0_5004_5215)">
<path d="M19.9997 11.0001C16.5555 11.0001 13.7534 13.8025 13.7534 17.2469C13.7534 20.5623 19.4208 28.3085 19.6621 28.6365L19.8873 28.943C19.9003 28.9606 19.9172 28.975 19.9367 28.9849C19.9562 28.9949 19.9778 29 19.9997 29.0001C20.0217 29.0001 20.0434 28.9949 20.0631 28.985C20.0827 28.9751 20.0998 28.9607 20.1128 28.943L20.3379 28.6365C20.5793 28.3085 26.2466 20.5623 26.2466 17.2469C26.2466 13.8025 23.4441 11.0001 19.9997 11.0001ZM19.9997 15.0093C21.2338 15.0093 22.2373 16.0128 22.2373 17.2469C22.2373 18.4803 21.2338 19.4844 19.9997 19.4844C18.7664 19.4844 17.7621 18.4803 17.7621 17.2469C17.7621 16.0128 18.7663 15.0093 19.9997 15.0093Z" fill="white"/>
</g>
<defs>
<clipPath id="clip0_5004_5215">
<rect width="18" height="18" fill="white" transform="translate(11 11)"/>
</clipPath>
</defs>
</svg>
