<svg width="175" height="174" viewBox="0 0 175 174" fill="none" xmlns="http://www.w3.org/2000/svg">
<path d="M0 0H175V154C175 165.046 166.046 174 155 174H20C8.9543 174 0 165.046 0 154V0Z" fill="#024260"/>
<path d="M25.598 114C25.3695 114 25.1771 113.94 25.0207 113.82C24.8764 113.687 24.8042 113.513 24.8042 113.296V100.613C24.8042 100.408 24.8703 100.24 25.0027 100.108C25.135 99.9754 25.3034 99.9092 25.5078 99.9092H29.892C30.6137 99.9092 31.2632 100.066 31.8406 100.378C32.4299 100.679 32.893 101.094 33.2298 101.623C33.5786 102.152 33.753 102.766 33.753 103.463C33.753 104.113 33.5786 104.69 33.2298 105.196C32.881 105.701 32.4239 106.086 31.8586 106.35C32.6645 106.567 33.314 106.976 33.8071 107.577C34.3003 108.166 34.5469 108.918 34.5469 109.832C34.5469 110.65 34.3604 111.372 33.9876 111.997C33.6147 112.623 33.0975 113.116 32.4359 113.477C31.7864 113.826 31.0407 114 30.1987 114H25.598ZM26.2115 112.647H30.1987C30.7761 112.647 31.2873 112.533 31.7323 112.304C32.1773 112.076 32.5262 111.751 32.7787 111.33C33.0313 110.909 33.1576 110.41 33.1576 109.832C33.1576 109.291 33.0313 108.822 32.7787 108.425C32.5262 108.016 32.1773 107.703 31.7323 107.487C31.2873 107.258 30.7761 107.144 30.1987 107.144H26.2115V112.647ZM26.2115 105.791H29.892C30.6137 105.791 31.2091 105.586 31.6782 105.177C32.1473 104.769 32.3818 104.197 32.3818 103.463C32.3818 102.742 32.1473 102.195 31.6782 101.822C31.2091 101.449 30.6137 101.262 29.892 101.262H26.2115V105.791ZM38.648 107.92C38.6841 107.174 38.8765 106.507 39.2254 105.917C39.5862 105.328 40.0493 104.865 40.6146 104.528C41.1919 104.191 41.8294 104.023 42.527 104.023C43.0803 104.023 43.5073 104.101 43.808 104.257C44.1087 104.414 44.223 104.642 44.1508 104.943C44.1027 105.123 44.0185 105.244 43.8982 105.304C43.79 105.364 43.6517 105.388 43.4833 105.376C43.3269 105.364 43.1465 105.352 42.942 105.34C42.2684 105.28 41.667 105.352 41.1378 105.556C40.6206 105.749 40.2056 106.05 39.8929 106.458C39.5922 106.867 39.4419 107.355 39.4419 107.92H38.648ZM38.7563 114C38.5398 114 38.3714 113.94 38.2511 113.82C38.1308 113.699 38.0707 113.531 38.0707 113.314V104.817C38.0707 104.6 38.1308 104.432 38.2511 104.311C38.3714 104.191 38.5398 104.131 38.7563 104.131C38.9728 104.131 39.1412 104.191 39.2614 104.311C39.3817 104.432 39.4419 104.6 39.4419 104.817V113.314C39.4419 113.531 39.3817 113.699 39.2614 113.82C39.1412 113.94 38.9728 114 38.7563 114ZM48.2284 114C48.0119 114 47.8375 113.94 47.7052 113.82C47.5849 113.687 47.5248 113.513 47.5248 113.296V104.835C47.5248 104.618 47.5849 104.45 47.7052 104.33C47.8375 104.197 48.0119 104.131 48.2284 104.131C48.4329 104.131 48.5953 104.197 48.7156 104.33C48.8479 104.45 48.914 104.618 48.914 104.835V113.296C48.914 113.513 48.8479 113.687 48.7156 113.82C48.5953 113.94 48.4329 114 48.2284 114ZM48.2104 102.255C47.9458 102.255 47.7172 102.158 47.5248 101.966C47.3324 101.774 47.2361 101.539 47.2361 101.262C47.2361 100.962 47.3324 100.727 47.5248 100.559C47.7293 100.378 47.9638 100.288 48.2284 100.288C48.481 100.288 48.7035 100.378 48.896 100.559C49.1005 100.727 49.2027 100.962 49.2027 101.262C49.2027 101.539 49.1065 101.774 48.914 101.966C48.7216 102.158 48.487 102.255 48.2104 102.255ZM57.7016 114.09C56.7514 114.09 55.9094 113.88 55.1757 113.459C54.442 113.026 53.8647 112.43 53.4437 111.673C53.0347 110.915 52.8303 110.049 52.8303 109.075C52.8303 108.088 53.0468 107.216 53.4798 106.458C53.9128 105.701 54.5082 105.111 55.2659 104.69C56.0237 104.257 56.8837 104.041 57.8459 104.041C58.8202 104.041 59.6802 104.257 60.4259 104.69C61.1837 105.111 61.7731 105.701 62.194 106.458C62.627 107.216 62.8496 108.088 62.8616 109.075L62.0497 109.508C62.0497 110.398 61.8633 111.191 61.4904 111.889C61.1175 112.575 60.6003 113.116 59.9388 113.513C59.2893 113.898 58.5436 114.09 57.7016 114.09ZM57.882 117.897C56.9318 117.897 56.0959 117.717 55.3742 117.356C54.6525 117.007 54.0571 116.526 53.588 115.912C53.4557 115.768 53.3956 115.612 53.4076 115.443C53.4317 115.275 53.5219 115.137 53.6782 115.028C53.8346 114.92 54.009 114.884 54.2015 114.92C54.3939 114.956 54.5442 115.046 54.6525 115.191C55.0013 115.624 55.4463 115.973 55.9876 116.237C56.5409 116.502 57.1784 116.634 57.9001 116.634C58.5736 116.634 59.181 116.472 59.7223 116.147C60.2636 115.822 60.6905 115.365 61.0033 114.776C61.328 114.186 61.4904 113.495 61.4904 112.701V109.959L62.0136 108.912L62.8616 109.075V112.755C62.8616 113.729 62.6451 114.601 62.2121 115.371C61.7791 116.153 61.1897 116.766 60.444 117.211C59.6982 117.669 58.8442 117.897 57.882 117.897ZM57.8459 112.827C58.5556 112.827 59.181 112.671 59.7223 112.358C60.2756 112.033 60.7086 111.588 61.0213 111.023C61.334 110.458 61.4904 109.808 61.4904 109.075C61.4904 108.341 61.334 107.691 61.0213 107.126C60.7086 106.549 60.2756 106.104 59.7223 105.791C59.181 105.466 58.5556 105.304 57.8459 105.304C57.1363 105.304 56.5048 105.466 55.9515 105.791C55.3982 106.104 54.9652 106.549 54.6525 107.126C54.3398 107.691 54.1834 108.341 54.1834 109.075C54.1834 109.808 54.3398 110.458 54.6525 111.023C54.9652 111.588 55.3982 112.033 55.9515 112.358C56.5048 112.671 57.1363 112.827 57.8459 112.827ZM67.1693 109.977C66.9527 109.977 66.7783 109.91 66.646 109.778C66.5258 109.646 66.4656 109.477 66.4656 109.273V100.613C66.4656 100.396 66.5258 100.228 66.646 100.108C66.7783 99.9754 66.9527 99.9092 67.1693 99.9092C67.3737 99.9092 67.5361 99.9754 67.6564 100.108C67.7887 100.228 67.8548 100.396 67.8548 100.613V109.273C67.8548 109.477 67.7887 109.646 67.6564 109.778C67.5361 109.91 67.3737 109.977 67.1693 109.977ZM74.9273 114C74.7228 114 74.5544 113.934 74.4221 113.802C74.2898 113.669 74.2237 113.507 74.2237 113.314V108.623C74.2237 107.878 74.0793 107.264 73.7907 106.783C73.514 106.302 73.1291 105.941 72.636 105.701C72.1548 105.46 71.6076 105.34 70.9941 105.34C70.4048 105.34 69.8695 105.454 69.3884 105.683C68.9193 105.911 68.5465 106.224 68.2698 106.621C67.9932 107.018 67.8548 107.469 67.8548 107.974H66.8625C66.8866 107.216 67.0911 106.543 67.476 105.953C67.8609 105.352 68.372 104.883 69.0095 104.546C69.647 104.197 70.3567 104.023 71.1385 104.023C71.9925 104.023 72.7562 104.203 73.4298 104.564C74.1034 104.913 74.6326 105.43 75.0175 106.116C75.4144 106.801 75.6129 107.637 75.6129 108.623V113.314C75.6129 113.507 75.5467 113.669 75.4144 113.802C75.2821 113.934 75.1197 114 74.9273 114ZM67.1693 114C66.9527 114 66.7783 113.94 66.646 113.82C66.5258 113.687 66.4656 113.519 66.4656 113.314V104.835C66.4656 104.618 66.5258 104.45 66.646 104.33C66.7783 104.197 66.9527 104.131 67.1693 104.131C67.3737 104.131 67.5361 104.197 67.6564 104.33C67.7887 104.45 67.8548 104.618 67.8548 104.835V113.314C67.8548 113.519 67.7887 113.687 67.6564 113.82C67.5361 113.94 67.3737 114 67.1693 114ZM83.4387 114C82.8012 114 82.2299 113.85 81.7247 113.549C81.2316 113.248 80.8407 112.839 80.552 112.322C80.2633 111.793 80.119 111.191 80.119 110.518V101.695C80.119 101.491 80.1791 101.323 80.2994 101.19C80.4317 101.058 80.6001 100.992 80.8046 100.992C81.0091 100.992 81.1775 101.058 81.3098 101.19C81.4421 101.323 81.5082 101.491 81.5082 101.695V110.518C81.5082 111.131 81.6887 111.636 82.0495 112.033C82.4103 112.418 82.8734 112.611 83.4387 112.611H83.9259C84.1183 112.611 84.2747 112.677 84.395 112.809C84.5152 112.942 84.5754 113.11 84.5754 113.314C84.5754 113.519 84.5032 113.687 84.3589 113.82C84.2145 113.94 84.0341 114 83.8176 114H83.4387ZM78.9463 105.701C78.7659 105.701 78.6155 105.647 78.4952 105.538C78.375 105.418 78.3148 105.274 78.3148 105.105C78.3148 104.925 78.375 104.781 78.4952 104.672C78.6155 104.552 78.7659 104.492 78.9463 104.492H83.547C83.7274 104.492 83.8777 104.552 83.998 104.672C84.1183 104.781 84.1784 104.925 84.1784 105.105C84.1784 105.274 84.1183 105.418 83.998 105.538C83.8777 105.647 83.7274 105.701 83.547 105.701H78.9463ZM104.625 114.18C103.855 114.18 103.14 114.072 102.478 113.856C101.829 113.627 101.263 113.308 100.782 112.899C100.301 112.49 99.9341 112.015 99.6816 111.474C99.5853 111.282 99.5793 111.107 99.6635 110.951C99.7597 110.783 99.9161 110.668 100.133 110.608C100.301 110.56 100.463 110.578 100.62 110.662C100.788 110.746 100.914 110.873 100.999 111.041C101.179 111.39 101.444 111.703 101.792 111.979C102.141 112.256 102.556 112.472 103.037 112.629C103.518 112.773 104.048 112.845 104.625 112.845C105.263 112.845 105.828 112.743 106.321 112.539C106.814 112.322 107.199 112.015 107.476 111.618C107.764 111.21 107.909 110.716 107.909 110.139C107.909 109.405 107.638 108.774 107.097 108.245C106.556 107.715 105.708 107.379 104.553 107.234C103.146 107.066 102.045 106.633 101.251 105.935C100.457 105.226 100.06 104.36 100.06 103.337C100.06 102.603 100.253 101.966 100.638 101.425C101.035 100.883 101.576 100.469 102.262 100.18C102.947 99.8792 103.735 99.7288 104.625 99.7288C105.287 99.7288 105.888 99.8371 106.429 100.054C106.971 100.258 107.44 100.535 107.837 100.883C108.245 101.22 108.576 101.593 108.829 102.002C108.949 102.195 108.985 102.381 108.937 102.561C108.901 102.742 108.799 102.88 108.63 102.976C108.45 103.061 108.264 103.073 108.071 103.012C107.891 102.952 107.752 102.838 107.656 102.67C107.476 102.393 107.247 102.134 106.971 101.894C106.706 101.641 106.381 101.443 105.996 101.298C105.611 101.154 105.148 101.076 104.607 101.064C103.657 101.064 102.893 101.268 102.316 101.677C101.738 102.074 101.45 102.658 101.45 103.427C101.45 103.836 101.558 104.215 101.774 104.564C101.991 104.901 102.346 105.196 102.839 105.448C103.344 105.689 104.018 105.869 104.86 105.989C106.363 106.206 107.476 106.669 108.197 107.379C108.931 108.076 109.298 108.99 109.298 110.121C109.298 110.77 109.178 111.348 108.937 111.853C108.709 112.358 108.378 112.785 107.945 113.134C107.524 113.471 107.025 113.729 106.447 113.91C105.882 114.09 105.275 114.18 104.625 114.18ZM126.295 114C126.091 114 125.923 113.94 125.79 113.82C125.658 113.687 125.592 113.519 125.592 113.314V108.118C125.592 107.264 125.369 106.591 124.924 106.098C124.479 105.592 123.908 105.34 123.21 105.34C122.465 105.34 121.851 105.592 121.37 106.098C120.901 106.591 120.672 107.252 120.684 108.082H119.439C119.452 107.276 119.626 106.567 119.963 105.953C120.299 105.34 120.763 104.865 121.352 104.528C121.941 104.191 122.609 104.023 123.355 104.023C124.064 104.023 124.69 104.191 125.231 104.528C125.784 104.865 126.211 105.34 126.512 105.953C126.825 106.567 126.981 107.288 126.981 108.118V113.314C126.981 113.519 126.915 113.687 126.783 113.82C126.662 113.94 126.5 114 126.295 114ZM113.666 114C113.45 114 113.275 113.94 113.143 113.82C113.023 113.687 112.962 113.519 112.962 113.314V104.835C112.962 104.63 113.023 104.462 113.143 104.33C113.275 104.197 113.45 104.131 113.666 104.131C113.871 104.131 114.033 104.197 114.153 104.33C114.285 104.462 114.352 104.63 114.352 104.835V113.314C114.352 113.519 114.285 113.687 114.153 113.82C114.033 113.94 113.871 114 113.666 114ZM119.999 114C119.794 114 119.626 113.94 119.494 113.82C119.361 113.687 119.295 113.519 119.295 113.314V108.118C119.295 107.264 119.073 106.591 118.628 106.098C118.183 105.592 117.611 105.34 116.914 105.34C116.168 105.34 115.554 105.586 115.073 106.08C114.592 106.561 114.352 107.192 114.352 107.974H113.359C113.383 107.204 113.552 106.525 113.865 105.935C114.189 105.334 114.628 104.865 115.182 104.528C115.735 104.191 116.36 104.023 117.058 104.023C117.768 104.023 118.393 104.191 118.934 104.528C119.488 104.865 119.915 105.34 120.215 105.953C120.528 106.567 120.684 107.288 120.684 108.118V113.314C120.684 113.519 120.618 113.687 120.486 113.82C120.366 113.94 120.203 114 119.999 114ZM131.947 114C131.731 114 131.556 113.94 131.424 113.82C131.304 113.687 131.244 113.513 131.244 113.296V104.835C131.244 104.618 131.304 104.45 131.424 104.33C131.556 104.197 131.731 104.131 131.947 104.131C132.152 104.131 132.314 104.197 132.434 104.33C132.567 104.45 132.633 104.618 132.633 104.835V113.296C132.633 113.513 132.567 113.687 132.434 113.82C132.314 113.94 132.152 114 131.947 114ZM131.929 102.255C131.665 102.255 131.436 102.158 131.244 101.966C131.051 101.774 130.955 101.539 130.955 101.262C130.955 100.962 131.051 100.727 131.244 100.559C131.448 100.378 131.683 100.288 131.947 100.288C132.2 100.288 132.422 100.378 132.615 100.559C132.819 100.727 132.922 100.962 132.922 101.262C132.922 101.539 132.825 101.774 132.633 101.966C132.44 102.158 132.206 102.255 131.929 102.255ZM139.201 114C138.72 114 138.287 113.868 137.902 113.603C137.529 113.338 137.235 112.972 137.018 112.503C136.814 112.033 136.712 111.492 136.712 110.879V100.595C136.712 100.39 136.772 100.228 136.892 100.108C137.024 99.9754 137.193 99.9092 137.397 99.9092C137.602 99.9092 137.764 99.9754 137.884 100.108C138.017 100.228 138.083 100.39 138.083 100.595V110.879C138.083 111.396 138.185 111.817 138.389 112.142C138.606 112.466 138.877 112.629 139.201 112.629H139.652C139.833 112.629 139.977 112.695 140.085 112.827C140.194 112.948 140.248 113.11 140.248 113.314C140.248 113.519 140.17 113.687 140.013 113.82C139.869 113.94 139.676 114 139.436 114H139.201ZM146.995 114.09C146.02 114.09 145.154 113.88 144.397 113.459C143.651 113.026 143.061 112.43 142.628 111.673C142.207 110.915 141.997 110.049 141.997 109.075C141.997 108.088 142.195 107.222 142.592 106.476C143.001 105.719 143.561 105.123 144.27 104.69C144.98 104.257 145.798 104.041 146.724 104.041C147.638 104.041 148.432 104.251 149.106 104.672C149.791 105.081 150.32 105.653 150.693 106.386C151.066 107.12 151.253 107.956 151.253 108.894C151.253 109.087 151.192 109.243 151.072 109.363C150.952 109.471 150.795 109.526 150.603 109.526H142.935V108.371H150.747L149.972 108.93C149.984 108.233 149.857 107.607 149.593 107.054C149.328 106.501 148.949 106.068 148.456 105.755C147.975 105.442 147.398 105.286 146.724 105.286C146.038 105.286 145.437 105.448 144.92 105.773C144.403 106.098 144 106.549 143.711 107.126C143.434 107.691 143.296 108.341 143.296 109.075C143.296 109.808 143.452 110.458 143.765 111.023C144.09 111.588 144.529 112.033 145.082 112.358C145.635 112.683 146.273 112.845 146.995 112.845C147.428 112.845 147.861 112.773 148.294 112.629C148.739 112.472 149.094 112.28 149.358 112.051C149.49 111.943 149.641 111.889 149.809 111.889C149.978 111.877 150.122 111.919 150.242 112.015C150.399 112.16 150.477 112.316 150.477 112.484C150.489 112.653 150.423 112.797 150.278 112.917C149.881 113.254 149.376 113.537 148.763 113.765C148.149 113.982 147.56 114.09 146.995 114.09Z" fill="white"/>
<path d="M102.073 133.82C102.173 133.82 102.261 133.859 102.337 133.935L103.054 134.713C102.658 135.205 102.168 135.582 101.586 135.843C101.009 136.105 100.314 136.236 99.5024 136.236C98.7762 136.236 98.1222 136.112 97.5404 135.864C96.963 135.615 96.4691 135.27 96.0587 134.828C95.6482 134.386 95.3325 133.859 95.1115 133.245C94.895 132.632 94.7867 131.962 94.7867 131.236C94.7867 130.501 94.904 129.829 95.1385 129.22C95.3731 128.606 95.7023 128.078 96.1263 127.636C96.5548 127.194 97.0645 126.852 97.6554 126.608C98.2463 126.36 98.9003 126.236 99.6174 126.236C100.33 126.236 100.962 126.353 101.512 126.588C102.067 126.822 102.538 127.129 102.926 127.508L102.317 128.354C102.281 128.408 102.234 128.455 102.175 128.496C102.121 128.536 102.044 128.557 101.945 128.557C101.877 128.557 101.807 128.539 101.735 128.502C101.663 128.462 101.584 128.414 101.498 128.36C101.413 128.302 101.313 128.239 101.201 128.171C101.088 128.103 100.957 128.042 100.808 127.988C100.659 127.93 100.486 127.882 100.287 127.846C100.093 127.806 99.8678 127.785 99.6107 127.785C99.1732 127.785 98.7717 127.864 98.4064 128.022C98.0455 128.175 97.7343 128.401 97.4727 128.699C97.2111 128.992 97.0081 129.353 96.8638 129.781C96.7195 130.205 96.6473 130.69 96.6473 131.236C96.6473 131.786 96.724 132.275 96.8773 132.704C97.0352 133.132 97.2472 133.493 97.5133 133.786C97.7794 134.08 98.0929 134.305 98.4537 134.463C98.8146 134.616 99.2025 134.693 99.6174 134.693C99.8655 134.693 100.089 134.68 100.287 134.652C100.49 134.625 100.675 134.583 100.842 134.524C101.013 134.465 101.174 134.391 101.322 134.301C101.476 134.206 101.627 134.091 101.776 133.956C101.821 133.915 101.868 133.883 101.918 133.861C101.967 133.834 102.019 133.82 102.073 133.82ZM112.603 134.625V136.127H106.872V126.344H108.692V134.625H112.603ZM118.3 136.127H116.473V126.344H118.3V136.127ZM131.309 126.344V136.127H130.375C130.231 136.127 130.109 136.105 130.01 136.06C129.915 136.01 129.822 135.929 129.732 135.816L124.624 129.294C124.651 129.592 124.665 129.867 124.665 130.119V136.127H123.061V126.344H124.015C124.092 126.344 124.157 126.349 124.211 126.358C124.27 126.362 124.32 126.376 124.36 126.398C124.405 126.416 124.448 126.446 124.489 126.486C124.529 126.522 124.575 126.572 124.624 126.635L129.753 133.184C129.739 133.026 129.728 132.871 129.719 132.717C129.71 132.564 129.705 132.422 129.705 132.291V126.344H131.309ZM137.885 136.127H136.058V126.344H137.885V136.127ZM149.365 133.82C149.464 133.82 149.552 133.859 149.629 133.935L150.346 134.713C149.949 135.205 149.46 135.582 148.878 135.843C148.3 136.105 147.606 136.236 146.794 136.236C146.068 136.236 145.414 136.112 144.832 135.864C144.254 135.615 143.761 135.27 143.35 134.828C142.94 134.386 142.624 133.859 142.403 133.245C142.186 132.632 142.078 131.962 142.078 131.236C142.078 130.501 142.195 129.829 142.43 129.22C142.664 128.606 142.994 128.078 143.418 127.636C143.846 127.194 144.356 126.852 144.947 126.608C145.538 126.36 146.192 126.236 146.909 126.236C147.622 126.236 148.253 126.353 148.803 126.588C149.358 126.822 149.829 127.129 150.217 127.508L149.608 128.354C149.572 128.408 149.525 128.455 149.466 128.496C149.412 128.536 149.336 128.557 149.236 128.557C149.169 128.557 149.099 128.539 149.027 128.502C148.954 128.462 148.875 128.414 148.79 128.36C148.704 128.302 148.605 128.239 148.492 128.171C148.379 128.103 148.248 128.042 148.1 127.988C147.951 127.93 147.777 127.882 147.579 127.846C147.385 127.806 147.159 127.785 146.902 127.785C146.465 127.785 146.063 127.864 145.698 128.022C145.337 128.175 145.026 128.401 144.764 128.699C144.503 128.992 144.3 129.353 144.155 129.781C144.011 130.205 143.939 130.69 143.939 131.236C143.939 131.786 144.015 132.275 144.169 132.704C144.327 133.132 144.539 133.493 144.805 133.786C145.071 134.08 145.384 134.305 145.745 134.463C146.106 134.616 146.494 134.693 146.909 134.693C147.157 134.693 147.38 134.68 147.579 134.652C147.782 134.625 147.967 134.583 148.133 134.524C148.305 134.465 148.465 134.391 148.614 134.301C148.767 134.206 148.918 134.091 149.067 133.956C149.112 133.915 149.16 133.883 149.209 133.861C149.259 133.834 149.311 133.82 149.365 133.82Z" fill="white"/>
<rect x="25.1571" y="133.913" width="60.3998" height="1.07857" fill="white"/>
<path d="M96.9173 25.0049C96.8353 25.0254 96.7533 25.0459 96.6712 25.0664C90.6731 26.8813 84.9211 27.0658 79.2305 24.1129C73.5707 21.2215 65.1118 20.6678 61.3899 26.8505C60.0365 29.0959 59.4828 31.7413 59.1752 34.3559C58.0679 43.4915 59.2367 53.8267 61.2976 62.7778C62.7126 68.7759 65.4809 76.7119 71.0792 80.0647C72.4634 80.8952 74.2475 81.3874 75.6932 80.6799C76.7082 80.157 77.3542 79.1419 77.8156 78.0961C79.4458 74.3126 81.0146 60.5015 87.9047 63.5468C89.535 64.2542 90.6423 65.823 91.2268 67.484C92.4264 71.0521 91.9035 74.9586 93.5953 78.4037C94.1182 79.4495 94.8257 80.5261 95.933 80.926C96.7635 81.2336 97.6863 81.0798 98.5168 80.8029C102.208 79.4803 105.099 75.3585 106.791 72.0057C112.574 60.5015 114.666 47.1519 112.759 34.4174C112.143 30.3263 110.605 26.2661 106.545 24.5435C103.531 23.2516 100.055 24.0514 96.9173 25.0049Z" fill="#F9FFF9"/>
<path d="M73.6015 72.4978C73.4169 73.2361 72.4634 73.4821 72.002 72.867C70.0334 70.4369 68.3416 66.4689 67.1727 61.4244C64.958 51.9196 64.2506 42.5687 65.1426 35.0941C65.3579 33.4638 65.6963 31.4029 66.5575 29.9572C66.8344 29.4958 67.6956 28.0501 70.8331 28.0501C72.6479 28.0501 74.7088 28.573 76.4314 29.4651C80.2148 31.4337 84.3058 32.418 88.5507 32.418C91.6882 32.418 94.9179 31.9258 98.4245 30.8493L98.6398 30.7877C100.055 30.3571 101.685 29.8957 103.008 29.8957C103.5 29.8957 103.9 29.9572 104.207 30.111C104.669 30.2956 106.145 30.9108 106.791 35.3094C108.637 47.5517 106.453 60.5631 100.301 71.329C100.055 71.7596 99.8087 72.1902 99.3781 72.4363C97.5017 73.6052 97.6248 70.56 97.5633 69.6372C97.5222 68.94 97.43 68.2427 97.2864 67.5455C97.0404 66.1921 96.6405 64.8694 96.0253 63.6083C94.8256 61.1475 92.857 59.1174 90.3347 58.01C88.9198 57.3948 87.4741 57.0872 86.0284 57.0872C77.3849 57.0872 75.201 66.5612 73.6015 72.4978Z" fill="#F0F5F0"/>
<path d="M124.909 39.8003C124.17 38.4161 122.602 37.3088 120.725 36.8474C118.264 36.263 115.711 36.5398 113.097 36.9397C113.158 37.5959 113.21 38.2623 113.251 38.939C115.742 38.5699 118.111 38.2931 120.233 38.816C121.556 39.1236 122.663 39.8618 123.124 40.7539C123.401 41.246 123.432 41.7382 123.248 42.2611C122.971 43.0916 122.202 43.9221 120.971 44.7219C118.603 46.3214 115.957 47.521 113.251 48.5668C111.805 49.1513 110.328 49.6742 108.852 50.1663C102.177 52.4425 94.6718 54.1035 85.9668 55.2417C78.1231 56.2875 69.2336 57.4256 60.4978 56.8104C60.3748 56.7899 60.2415 56.7796 60.0979 56.7796C58.4369 56.6258 56.5913 56.4105 54.9611 55.7953C53.2078 55.1494 51.8851 54.1343 51.3314 52.9655C50.9623 52.1965 50.9316 51.489 51.2392 50.7815C51.7621 49.5511 53.5461 47.7363 58.8368 45.7677C58.8163 45.0705 58.7958 44.3733 58.7753 43.676C53.4846 45.5216 50.4087 47.5825 49.3936 49.9818C48.8707 51.2429 48.9014 52.5348 49.5166 53.8575C50.3164 55.4877 51.9774 56.8412 54.2536 57.7024C56.2838 58.4407 58.4677 58.6867 60.3748 58.8098C60.3953 58.8098 60.4261 58.8098 60.4671 58.8098C62.2101 58.9328 63.9429 58.9943 65.6654 58.9943C72.8017 58.9943 79.8764 58.0715 86.2437 57.241C95.0717 56.1029 102.7 54.4111 109.529 52.0734C110.667 51.6735 111.866 51.2429 113.035 50.8123C116.173 49.6434 119.31 48.2592 122.079 46.4136C123.709 45.3371 124.693 44.1989 125.155 42.9378C125.524 41.892 125.431 40.7846 124.909 39.8003Z" fill="#4378FB"/>
<path d="M124.847 34.1098C124.109 32.7256 122.54 31.6182 120.664 31.1569C118.08 30.5417 114.881 30.9108 112.082 31.3414L112.574 33.31C115.158 32.9102 117.957 32.5718 120.202 33.1255C121.494 33.4331 122.602 34.1713 123.094 35.0633C123.34 35.5555 123.401 36.0476 123.217 36.5706C122.909 37.4011 122.14 38.2316 120.91 39.0621C118.603 40.6001 116.019 41.7997 113.374 42.8148C111.866 43.43 110.328 43.9529 108.821 44.4758C102.116 46.752 94.6103 48.413 85.936 49.5511C78.0616 50.5969 69.172 51.7351 60.4671 51.1199C60.0569 51.0789 59.6365 51.0378 59.2059 50.9968C57.791 50.8738 56.2837 50.6277 54.8996 50.1048C53.1463 49.4589 51.8236 48.4438 51.2699 47.2749C50.9316 46.5059 50.9008 45.7984 51.1776 45.091C51.7006 43.8606 53.4846 42.0458 58.7138 40.1079C58.7343 39.3902 58.765 38.6725 58.806 37.9547C53.4539 39.8003 50.3779 41.892 49.3321 44.2912C48.8091 45.5524 48.8399 46.8443 49.4551 48.1669C50.2549 49.7972 51.9466 51.1506 54.1921 52.0119C55.9454 52.6271 57.791 52.9039 59.4827 53.0577C59.7698 53.0782 60.0467 53.0987 60.3133 53.1192C62.0768 53.2423 63.8404 53.3038 65.6039 53.3038C72.7709 53.3038 79.8149 52.381 86.1821 51.5505C95.0101 50.4124 102.639 48.7206 109.467 46.3829C110.759 45.9215 112.051 45.4601 113.374 44.9679C116.388 43.8298 119.372 42.5072 122.017 40.7231C123.647 39.6465 124.662 38.5084 125.093 37.2473C125.462 36.2014 125.401 35.0941 124.847 34.1098Z" fill="#00ADEF"/>
<path d="M120.694 33.8329L124.416 34.5404L120.51 35.2171L119.925 39.0313L119.156 35.2787L115.435 34.5404L119.095 33.6484L119.925 30.0495L120.694 33.8329Z" fill="#F9FFF9"/>
<path d="M124.386 40.5385L127 41.0615L124.263 41.5229L123.863 44.1989L123.309 41.5536L120.694 41.0307L123.278 40.4155L123.863 37.8932L124.386 40.5385Z" fill="#F9FFF9"/>
</svg>
