<svg width="40" height="40" viewBox="0 0 40 40" fill="none" xmlns="http://www.w3.org/2000/svg">
<circle cx="20" cy="20" r="19.5" stroke="white"/>
<g clip-path="url(#clip0_5007_5282)">
<path d="M27.8949 23.7126C27.8488 23.6761 24.5002 21.2624 23.5811 21.4356C23.1424 21.5133 22.8915 21.8125 22.3881 22.4116C22.3071 22.5083 22.1124 22.7401 21.9611 22.9049C21.643 22.8011 21.3326 22.6748 21.0324 22.5269C19.483 21.7726 18.2312 20.5207 17.4769 18.9713C17.3289 18.6712 17.2025 18.3608 17.0989 18.0426C17.2642 17.8908 17.496 17.6961 17.595 17.6129C18.1912 17.1123 18.4911 16.8614 18.5687 16.4215C18.7279 15.5103 16.3159 12.1386 16.2906 12.1083C16.1811 11.9519 16.0383 11.8219 15.8724 11.7275C15.7066 11.6332 15.5218 11.5768 15.3315 11.5626C14.3539 11.5626 11.5627 15.1835 11.5627 15.7932C11.5627 15.8286 11.6139 19.4309 16.056 23.9495C20.5701 28.3865 24.1717 28.4376 24.2072 28.4376C24.8175 28.4376 28.4377 25.6465 28.4377 24.6689C28.4237 24.4793 28.3677 24.2951 28.2739 24.1297C28.18 23.9644 28.0506 23.8219 27.8949 23.7126Z" fill="white"/>
</g>
<defs>
<clipPath id="clip0_5007_5282">
<rect width="18" height="18" fill="white" transform="translate(11 11)"/>
</clipPath>
</defs>
</svg>
