<svg width="40" height="41" viewBox="0 0 40 41" fill="none" xmlns="http://www.w3.org/2000/svg">
<circle cx="20" cy="20.3699" r="19.5801" stroke="white" stroke-width="0.839888"/>
<g clip-path="url(#clip0_5004_5203)">
<path d="M11.3225 20.1751L15.5302 21.7455L17.1589 26.9832C17.2631 27.3186 17.6733 27.4426 17.9456 27.22L20.291 25.308C20.5369 25.1077 20.887 25.0977 21.144 25.2842L25.3743 28.3555C25.6656 28.5672 26.0782 28.4076 26.1513 28.0557L29.2502 13.1492C29.3299 12.7647 28.9522 12.444 28.5861 12.5856L11.3176 19.2472C10.8915 19.4116 10.8952 20.0149 11.3225 20.1751ZM16.8964 20.9095L25.1198 15.8447C25.2676 15.754 25.4197 15.9538 25.2927 16.0715L18.506 22.3801C18.2675 22.6021 18.1136 22.8993 18.07 23.2219L17.8389 24.9351C17.8082 25.1639 17.4869 25.1866 17.4238 24.9652L16.5347 21.841C16.4328 21.4847 16.5812 21.1041 16.8964 20.9095Z" fill="white"/>
</g>
<defs>
<clipPath id="clip0_5004_5203">
<rect width="18.261" height="18.261" fill="white" transform="translate(11 11.3699)"/>
</clipPath>
</defs>
</svg>
