<svg width="18" height="19" viewBox="0 0 18 19" fill="none" xmlns="http://www.w3.org/2000/svg">
<path fill-rule="evenodd" clip-rule="evenodd" d="M16.9642 17.4317H12.3222L12.009 16.9765L7.9721 11.111L7.37494 10.2444L2.35073 2.94565L1.21875 1.30011H5.86078L6.17394 1.75396L9.95338 7.24397L10.5506 8.11185L15.8322 15.7862L16.9642 17.4317ZM14.9657 16.3807L9.84194 8.93597L9.24474 8.06805L5.30874 2.3498H3.21596L8.08226 9.42033L8.67942 10.2882L12.8729 16.3807H14.9657Z" fill="white"/>
<path d="M8.08203 9.42033L8.67919 10.2882L7.97187 11.111L2.53894 17.4317H1.19995L7.37471 10.2444L8.08203 9.42033Z" fill="white"/>
<path d="M16.4054 1.30011L10.5504 8.11185L9.84179 8.93461L9.24463 8.06805L9.95327 7.24397L13.9198 2.62716L15.0664 1.30011H16.4054Z" fill="white"/>
</svg>
