<svg width="40" height="42" viewBox="0 0 40 42" fill="none" xmlns="http://www.w3.org/2000/svg">
<path d="M39.5801 20.9255C39.5801 32.057 30.803 41.0611 20 41.0611C9.19701 41.0611 0.419944 32.057 0.419944 20.9255C0.419944 9.79397 9.19701 0.789874 20 0.789874C30.803 0.789874 39.5801 9.79397 39.5801 20.9255Z" stroke="white" stroke-width="0.839888"/>
<path fill-rule="evenodd" clip-rule="evenodd" d="M27.9642 29.4317H23.3222L23.009 28.9765L18.9721 23.111L18.3749 22.2444L13.3507 14.9457L12.2188 13.3001H16.8608L17.1739 13.754L20.9534 19.244L21.5506 20.1119L26.8322 27.7862L27.9642 29.4317ZM25.9657 28.3807L20.8419 20.936L20.2447 20.0681L16.3087 14.3498H14.216L19.0823 21.4203L19.6794 22.2882L23.8729 28.3807H25.9657Z" fill="white"/>
<path d="M19.082 21.4203L19.6792 22.2882L18.9719 23.111L13.5389 29.4317H12.2L18.3747 22.2444L19.082 21.4203Z" fill="white"/>
<path d="M27.4054 13.3001L21.5504 20.1119L20.8418 20.9346L20.2446 20.0681L20.9533 19.244L24.9198 14.6272L26.0664 13.3001H27.4054Z" fill="white"/>
</svg>
