<svg width="40" height="41" viewBox="0 0 40 41" fill="none" xmlns="http://www.w3.org/2000/svg">
<circle cx="20" cy="20.3699" r="19.5801" stroke="white" stroke-width="0.839888"/>
<g clip-path="url(#clip0_5004_5199)">
<path d="M20.175 11.37H20.1704C15.1131 11.37 11.0005 15.4837 11.0005 20.5422C11.0005 22.5486 11.6471 24.4083 12.7466 25.9183L11.6036 29.3257L15.1291 28.1987C16.5795 29.1595 18.3096 29.7144 20.175 29.7144C25.2323 29.7144 29.3449 25.5995 29.3449 20.5422C29.3449 15.4849 25.2323 11.37 20.175 11.37ZM25.5121 24.3223C25.2908 24.9472 24.4126 25.4654 23.712 25.6167C23.2328 25.7188 22.6068 25.8002 20.4995 24.9265C17.804 23.8098 16.0681 21.0708 15.9328 20.893C15.8033 20.7153 14.8436 19.4427 14.8436 18.1265C14.8436 16.8103 15.5121 16.1693 15.7815 15.8942C16.0028 15.6683 16.3685 15.5651 16.7194 15.5651C16.8329 15.5651 16.9349 15.5709 17.0266 15.5754C17.2961 15.5869 17.4314 15.603 17.6091 16.0283C17.8303 16.5615 18.3692 17.8777 18.4334 18.013C18.4988 18.1483 18.5641 18.3317 18.4724 18.5094C18.3864 18.6929 18.3107 18.7743 18.1755 18.9302C18.0402 19.0861 17.9118 19.2054 17.7765 19.3727C17.6526 19.5184 17.5128 19.6743 17.6687 19.9437C17.8246 20.2074 18.3635 21.0868 19.1569 21.7931C20.1807 22.7046 21.0108 22.9958 21.3078 23.1196C21.529 23.2113 21.7927 23.1895 21.9544 23.0176C22.1596 22.7963 22.413 22.4294 22.671 22.0682C22.8544 21.8091 23.086 21.777 23.3291 21.8687C23.5767 21.9547 24.8872 22.6025 25.1567 22.7367C25.4261 22.8719 25.6038 22.9361 25.6691 23.0497C25.7334 23.1632 25.7334 23.6963 25.5121 24.3223Z" fill="white"/>
</g>
<defs>
<clipPath id="clip0_5004_5199">
<rect width="18.3444" height="18.3444" fill="white" transform="translate(11 11.3699)"/>
</clipPath>
</defs>
</svg>
